<svg width="106" height="59" viewBox="0 0 106 59" fill="none" xmlns="http://www.w3.org/2000/svg">
<path d="M21.6586 21.5198C21.6077 21.4798 21.5101 21.4082 21.5127 21.4044C21.6215 21.2435 21.4949 21.1073 21.4681 20.9661C21.4195 20.7321 21.4594 20.4879 21.5801 20.281C21.7008 20.074 21.8938 19.9191 22.1215 19.8463C22.3372 19.776 22.3812 19.6703 22.3055 19.4688C22.1843 19.1463 22.2357 18.8416 22.4197 18.5486C22.547 18.3461 22.7596 18.2823 22.9511 18.1883C23.0958 18.1211 23.2225 18.0203 23.3206 17.8941C23.4187 17.768 23.4853 17.6203 23.5149 17.4633C23.6101 16.9735 23.3684 16.1025 22.7089 15.7466C22.3145 15.5339 21.9433 15.2789 21.5539 15.0566C21.3612 14.9465 21.3268 14.8288 21.4435 14.6382C21.6405 14.3166 21.8062 13.9748 22.017 13.6631C22.187 13.4118 22.1542 13.2096 21.995 12.9772C21.5432 12.3176 21.3602 11.5594 21.339 10.7786C21.3124 9.79877 21.5502 8.87148 22.1128 8.04405C22.3067 7.75884 22.4943 7.46187 22.7487 7.23458C23.4078 6.64568 24.2087 6.2397 25.0713 6.05718C25.8731 5.88304 26.7069 5.9445 27.4725 6.23418C27.6985 6.31681 27.8439 6.26989 27.9278 6.04677C28.0265 5.78432 28.1828 5.55604 28.3431 5.33022C28.64 4.9033 29.0145 4.53621 29.4469 4.24833C30.1417 3.78225 30.958 3.53281 31.7923 3.53163C32.1974 3.53152 32.6095 3.56088 32.9853 3.71544C33.4252 3.89635 33.8676 4.07012 34.2586 4.36634C34.6307 4.64818 34.9614 4.96795 35.2057 5.3501C35.7252 6.16245 36.0118 7.04418 35.918 8.04149C35.853 8.73379 35.6755 9.37176 35.2828 9.94209C34.9703 10.3958 34.942 10.5069 35.2736 10.7904C35.6717 11.1308 35.9679 11.5437 36.2288 11.9879C36.7608 12.8937 36.9216 13.8815 36.7536 14.9071C36.6196 15.7325 36.2644 16.5069 35.7262 17.1475C35.1201 17.8772 34.3569 18.3593 33.4633 18.6448C33.0014 18.7856 32.5181 18.8402 32.0373 18.8058C31.7955 18.7923 31.6203 18.8735 31.5048 19.0766C31.3137 19.4125 31.1233 19.7495 30.9505 20.095C30.8265 20.3431 30.7418 20.3867 30.5066 20.2527C30.1568 20.0533 29.8035 19.8591 29.4613 19.6473C28.8582 19.2741 28.2499 19.3126 27.6404 19.6202C27.2778 19.8032 27.0298 20.1962 27.1306 20.6026C27.2212 20.968 27.0795 21.2714 26.8203 21.5365C26.6019 21.76 26.3265 21.8026 26.042 21.8353M26.0826 21.8747C26.1152 21.9389 26.0785 22.0044 26.0887 22.074C26.1825 22.7163 25.9029 23.1372 25.2785 23.3237C25.2033 23.3462 25.1315 23.3806 25.0682 23.4055C25.027 23.5235 25.0727 23.6203 25.0775 23.7192C25.096 24.097 25.0322 24.4445 24.6662 24.6593C24.5048 24.7539 24.3379 24.8439 24.1497 24.8348C23.8955 24.8226 23.7833 24.969 23.6698 25.1673C22.742 26.7884 21.8024 28.4028 20.8725 30.0227C20.2174 31.1638 19.5671 32.308 18.911 33.4482C18.5212 34.1255 18.1368 34.8076 17.7256 35.4733C17.3436 36.0918 17.0105 36.7386 16.6417 37.3656C15.2704 39.6973 13.9294 42.0469 12.5754 44.3889C12.5045 44.5116 12.4735 44.6507 12.4117 44.7728C12.2568 45.0789 12.3509 45.4196 12.2469 45.7292M21.4921 21.4237C21.0501 21.5797 20.7292 21.8431 20.644 22.3378C20.6056 22.543 20.6443 22.7548 20.7527 22.9324C20.8643 23.1135 20.8259 23.2432 20.731 23.4068C19.6138 25.3329 18.4968 27.2592 17.3919 29.1925C17.109 29.6876 16.8271 30.1837 16.5464 30.6807C16.2069 31.2805 15.8494 31.874 15.5136 32.4746C15.1453 33.1333 14.7406 33.7706 14.3798 34.4343C13.7869 35.5251 13.1284 36.5802 12.5034 37.6537C11.8738 38.7351 11.2427 39.8159 10.6289 40.9063C10.304 41.4836 9.9748 42.0586 9.64144 42.6312C9.35104 43.1317 9.05867 43.6362 8.77842 44.1407C8.42073 44.7844 7.98713 45.3839 7.67612 46.0552C7.54719 46.3206 7.39519 46.5742 7.2219 46.813C7.07008 47.0302 6.97298 47.2849 6.8383 47.5152C6.55959 47.9918 6.2703 48.4622 5.98929 48.9375C5.92966 49.0417 5.87757 49.15 5.83345 49.2617C5.74159 49.4851 5.79697 49.6532 6.0101 49.777C6.79352 50.2323 7.5801 50.6821 8.36282 51.1385C8.5327 51.2376 8.65814 51.182 8.78832 51.0641C8.93512 50.9313 9.05995 50.7688 9.2464 50.691C9.43719 50.7837 9.39295 50.9782 9.4451 51.1268C9.47048 51.1991 9.45886 51.2837 9.47122 51.3616C9.5223 51.6832 9.66687 51.9129 9.97622 52.0788C10.7663 52.5026 11.534 52.9679 12.3111 53.4158C12.574 53.5674 12.6831 53.5372 12.837 53.2735C12.9112 53.1463 12.9816 53.0169 13.0586 52.8914C13.1601 52.7259 13.3014 52.6873 13.4709 52.7799C13.6235 52.8632 13.7691 52.9598 13.924 53.0382C14.1144 53.1346 14.2666 53.095 14.3463 52.9024C14.4884 52.5587 14.7138 52.2638 14.8811 51.9354C14.975 51.7512 14.9491 51.6204 14.7691 51.5197C14.6173 51.4348 14.4667 51.3479 14.3173 51.2589C14.1636 51.1676 14.1286 51.0392 14.2178 50.8833C14.4417 50.4919 14.6706 50.1034 14.8925 49.711C14.9976 49.5253 15.1468 49.5576 15.2918 49.6264C15.4471 49.7047 15.5982 49.7911 15.7445 49.8852C15.8924 49.9753 15.9996 49.9629 16.1104 49.8089C16.3542 49.47 16.5315 49.0955 16.7292 48.7314C16.81 48.5827 16.7897 48.465 16.6372 48.3945C16.5026 48.3323 16.4104 48.2152 16.2607 48.1641C16.038 48.0881 15.9777 47.8402 16.0946 47.6319C16.1622 47.5116 16.2335 47.3933 16.3011 47.273C16.4101 47.0792 16.3862 46.9424 16.2046 46.8367C15.3108 46.3165 14.413 45.8029 13.5197 45.2818C13.3979 45.2107 13.2908 45.252 13.1739 45.2753C12.893 45.3311 12.65 45.528 12.3473 45.5003M29.557 6.79599C29.393 7.26834 29.2833 7.74666 29.4183 8.24532C29.5923 8.88808 29.8895 9.42309 30.4857 9.79943C31.4584 10.4135 32.7493 10.1898 33.4976 9.3858C34.147 8.68814 34.334 7.82281 33.9258 6.8032C33.6236 6.04807 33.0313 5.58484 32.2647 5.40776C31.3957 5.20704 30.6395 5.50566 30.0035 6.12877C29.8133 6.31505 29.7018 6.54883 29.5708 6.77209M28.2725 17.7523C28.2258 17.7907 28.1714 17.8186 28.1131 17.8341C28.0548 17.8497 27.9939 17.8525 27.9346 17.8424C27.3027 17.7208 26.7095 17.8541 26.1312 18.1086C25.9947 18.1687 25.8645 18.2563 25.7047 18.246M25.6395 18.304C25.6068 18.1643 25.5837 18.0226 25.5704 17.8797C25.5551 17.376 25.4559 16.8969 25.1724 16.475C24.9424 16.1327 24.8656 15.6629 24.3966 15.5143C24.3882 15.5106 24.3802 15.5061 24.3728 15.5008M28.7105 18.037C28.4409 17.9162 28.2791 17.7033 28.1219 17.4536C27.8687 17.0655 27.6777 16.6396 27.5561 16.1917C27.4777 15.8879 27.5092 15.5644 27.3918 15.2665C27.2237 15.2392 27.0694 15.3222 26.9464 15.3982C26.5783 15.6259 26.1802 15.6999 25.7627 15.7312C25.4705 15.7531 25.1755 15.6789 24.8859 15.7652M29.6339 13.0878C29.6 13.2382 29.5777 13.3923 29.5302 13.5383C29.1068 14.8377 29.971 16.4435 31.2316 16.86C32.0044 17.1154 32.7164 17.0216 33.4358 16.7172C33.888 16.5258 34.1984 16.1913 34.4865 15.7949C35.289 14.6905 35.1228 13.1432 34.2414 12.2449C33.5582 11.5487 32.7191 11.2891 31.7561 11.4456C30.7679 11.6062 30.1016 12.1975 29.6477 13.0639M23.374 9.37797C23.1471 9.9573 23.012 10.5479 23.1648 11.1691C23.3006 11.7559 23.614 12.2855 24.0622 12.6855C24.7967 13.3481 25.6584 13.4981 26.564 13.2812C28.2004 12.8893 29.0666 11.2091 28.5651 9.66633C28.3049 8.8655 27.7893 8.26301 27.0177 7.95797C26.1328 7.60817 25.244 7.66721 24.407 8.18783C23.9453 8.475 23.6457 8.89365 23.3878 9.35407" stroke="#FBBC58" stroke-linecap="round" stroke-linejoin="round"/>
<path d="M60.1494 16.746C60.0716 17.0051 60.1358 17.2827 60.0473 17.5428C59.8082 18.2464 59.4325 18.8465 58.795 19.2623C58.4765 19.4646 58.1262 19.614 57.7578 19.7048C57.6271 19.7389 57.569 19.8128 57.5101 19.915C52.953 27.811 48.3952 35.7065 43.8365 43.6016C43.6099 43.9941 43.7525 44.4243 44.1532 44.676C45.205 45.3365 46.2973 45.927 47.3656 46.5588C47.8551 46.8483 47.9534 47.2135 47.682 47.6925C47.3435 48.2898 47.0331 48.9043 46.6689 49.4854C46.3525 49.9903 46.1152 50.5398 45.7638 51.0248C45.6148 51.2306 45.5268 51.4792 45.3973 51.7003C45.0366 52.3165 44.6671 52.9275 44.3042 53.5425C44.0743 53.9322 43.6453 54.048 43.2407 53.8154C42.0355 53.1221 40.8312 52.4271 39.6279 51.7304C39.3099 51.5468 39.2549 51.5544 39.0737 51.8544C38.9224 52.1048 38.7108 52.2457 38.4137 52.2669C38.1928 52.2826 38.0255 52.2141 37.9136 52.0105C37.6102 51.4582 37.132 51.2013 36.5088 51.1978C36.1414 51.1957 35.8353 50.7556 35.9842 50.3865C36.135 50.0221 36.3161 49.6711 36.5259 49.3373C36.6459 49.1428 36.7702 48.9495 36.8849 48.7516C37.6335 47.461 38.3799 46.1692 39.1242 44.8761L50.1768 25.7325C51.4491 23.5288 52.7167 21.3224 53.9993 19.1247C54.1701 18.832 54.3452 18.5426 54.5055 18.2436C54.5875 18.0907 54.6371 17.9468 54.576 17.777C54.3285 17.0898 54.4191 16.4129 54.6525 15.7584C54.7792 15.4294 54.9807 15.1347 55.2416 14.8969C55.4111 14.7357 55.5694 14.5628 55.7826 14.4427C56.0075 14.316 56.0299 14.1685 55.8704 13.9635C55.6879 13.7325 55.4916 13.5124 55.2826 13.3044C54.4618 12.4923 53.909 11.4539 53.6992 10.3302C53.5714 9.65853 53.5532 8.97272 53.6452 8.299C53.7189 7.73908 53.868 7.18414 54.1371 6.71114C54.5055 6.06353 54.9139 5.41503 55.5227 4.94413C56.2375 4.39128 56.9881 3.91762 57.9263 3.7814C58.2453 3.73508 58.564 3.62934 58.8891 3.59373C59.287 3.55587 59.6893 3.57445 60.0837 3.64889C60.46 3.7151 60.8451 3.69819 61.2113 3.59939C61.7215 3.46535 62.2243 3.32225 62.7721 3.34609C63.2002 3.36992 63.6243 3.44817 64.034 3.57888C64.2252 3.63188 64.4105 3.70515 64.5865 3.79743C65.6693 4.3936 66.4185 5.26976 66.6882 6.45699C66.8485 7.16264 67.2337 7.70794 67.6153 8.28648C68.1157 9.04506 68.454 9.86315 68.5139 10.7876C68.5533 11.3967 68.5502 11.9902 68.4382 12.5883C68.3016 13.3174 67.9785 13.9622 67.5753 14.5645C67.1308 15.2287 66.5328 15.7438 65.851 16.1714C64.9293 16.7543 63.8475 17.0466 62.7456 17.0105C62.07 16.9954 61.4194 16.8293 60.765 16.6854C60.5484 16.6378 60.3418 16.5884 60.1389 16.7083M55.9015 7.6983C55.7313 8.2507 55.5648 8.80003 55.5969 9.39546C55.6511 10.4027 56.033 11.2827 56.7775 11.9563C57.2641 12.3978 57.8594 12.7037 58.5011 12.842C59.1743 12.9882 59.7796 13.3596 60.2145 13.8932C60.5175 14.2653 60.9463 14.4934 61.3718 14.6829C62.4408 15.159 63.4938 15.1007 64.5373 14.5923C65.0827 14.3266 65.4958 13.9448 65.854 13.4764C66.7752 12.272 66.7196 10.7162 66.0705 9.57207C65.8123 9.11694 65.4905 8.74911 65.0212 8.47581C64.6308 8.24839 64.3378 7.88032 64.158 7.45364C63.8774 6.78769 63.3681 6.37989 62.6836 6.2035C62.4495 6.14316 62.1834 6.17999 61.9369 6.20878C61.4869 6.26296 61.0289 6.16923 60.6331 5.94193C59.9371 5.54053 59.2281 5.55048 58.4925 5.67538C57.8669 5.77837 57.2899 6.06469 56.8354 6.4976C56.4763 6.83884 56.1323 7.2132 55.9153 7.67452" stroke="#FBBC58" stroke-linecap="round" stroke-linejoin="round"/>
<path d="M86.5172 25.1271C86.1889 25.714 85.8586 26.2998 85.5329 26.8882C85.1001 27.67 84.6804 28.4593 84.2377 29.2355C83.6169 30.3239 83.0063 31.418 82.4059 32.5176C81.9303 33.3912 81.4372 34.2556 80.9361 35.115C80.7731 35.3947 80.6351 35.6857 80.4825 35.9698C80.356 36.2053 80.2825 36.4265 80.3867 36.7229C80.65 37.472 80.133 38.1487 79.6317 38.4741C79.4381 38.5997 79.3368 38.7065 79.3489 38.9597C79.3649 39.2929 79.2485 39.6017 78.9024 39.7462C78.7387 39.8107 78.5704 39.8628 78.3989 39.9022C78.2855 39.9308 78.1498 39.9602 78.1001 40.0507C77.7625 40.6644 77.4123 41.2744 77.1277 41.9129C76.9783 42.2482 77.2317 42.552 77.5588 42.7402C79.7589 44.0057 81.9574 45.2742 84.1541 46.5455C84.5773 46.7898 84.6711 47.1374 84.4259 47.564C84.0724 48.1788 83.7178 48.7931 83.3622 49.4068C83.0839 49.8883 82.7106 49.9908 82.2316 49.7099C81.954 49.547 81.6853 49.3688 81.4075 49.206C81.3429 49.1739 81.2907 49.1214 81.259 49.0565C81.2273 48.9916 81.2179 48.9181 81.2322 48.8472C81.2814 48.4742 81.2141 48.0869 80.9347 47.8677C80.5648 47.5774 80.5656 47.227 80.5758 46.8405C80.576 46.8324 80.5889 46.8242 80.5884 46.8166C80.5608 46.4032 80.2762 46.1001 79.9149 46.1091C79.1715 46.1234 78.4531 46.3815 77.8699 46.8438C77.7703 46.9213 77.6741 47.0222 77.5574 47.0392C77.0946 47.1065 76.4708 46.5626 76.4299 46.0746C76.4233 45.9957 76.4189 45.9163 76.4067 45.8382C76.3375 45.3983 76.1351 45.139 75.8224 45.0856C75.4916 45.0291 75.2216 45.1882 75.0017 45.569C74.6333 46.2072 74.2496 46.8372 73.9023 47.4867C73.7035 47.8584 73.7542 48.2409 74.1672 48.4503C74.475 48.6063 74.7257 48.5344 74.9898 48.401C75.313 48.2379 75.6484 48.2202 75.9671 48.3675C76.324 48.5326 76.5799 48.8508 76.5194 49.187C76.3877 49.9085 76.5066 50.6531 76.8565 51.2969C76.9018 51.3836 76.9685 51.4572 77.0502 51.5108C77.3514 51.7127 77.5496 51.7576 78.0473 51.4454C78.2266 51.333 78.4009 51.1763 78.6496 51.2789C79.09 51.4608 79.514 51.4273 79.9049 51.1432C80.0489 51.0386 80.1764 51.0367 80.3287 51.1301C80.6422 51.3222 80.9695 51.492 81.2815 51.6865C81.6508 51.9168 81.7242 52.2098 81.5329 52.5628C81.151 53.267 80.7443 53.9581 80.3323 54.6454C80.1974 54.8704 79.9947 54.9954 79.7003 54.9251C79.5098 54.8773 79.3273 54.8021 79.1584 54.7018C78.4159 54.2773 77.689 53.8267 76.9439 53.4057C76.4008 53.0989 75.8596 52.7826 75.3234 52.4606C74.4878 51.959 73.6401 51.4771 72.7916 50.9973C72.4816 50.8221 72.0492 50.8988 71.8832 51.1396C71.7526 51.3292 71.6308 51.5254 71.5133 51.7236C71.1607 52.3184 70.8974 52.9613 70.5262 53.547C70.2674 53.9551 69.9184 54.0575 69.5058 53.8192C68.6297 53.3134 67.7537 52.8076 66.8777 52.3018C66.5528 52.1142 66.4521 51.7792 66.6331 51.4587C66.8777 51.0256 67.1287 50.5961 67.3783 50.1659C68.0304 49.0424 68.6588 47.9049 69.3732 46.8185C69.6113 46.4565 69.7931 46.0621 70.0155 45.6895C71.0823 43.902 72.1199 42.097 73.1707 40.3C73.6031 39.5604 74.04 38.8235 74.4814 38.0893C74.5707 37.9408 74.5884 37.8224 74.5111 37.6534C74.2706 37.1273 74.3931 36.7102 74.8692 36.3679C75.0433 36.2427 75.1624 36.0938 75.1815 35.877C75.2504 35.095 75.7516 34.3949 76.5391 34.3028C76.5784 34.3016 76.6167 34.2903 76.6505 34.2702C76.6842 34.25 76.7123 34.2216 76.7321 34.1876C76.939 33.8602 77.1572 33.5398 77.3577 33.2085C77.9349 32.2549 78.5208 31.306 79.0749 30.3391C79.7944 29.0839 80.5603 27.8569 81.2937 26.6104C82.0739 25.2845 82.8211 23.9392 83.6497 22.6419C83.982 22.1216 84.3051 21.5952 84.6234 21.0662C85.2693 19.9927 85.9137 18.9182 86.5498 17.8389C87.0455 16.9977 87.5303 16.1501 88.0146 15.3023C88.1949 14.9866 88.125 14.6816 87.8464 14.4383C87.1999 13.8737 86.6664 13.2122 86.195 12.4974C85.5909 11.5815 85.1633 10.595 84.9925 9.50485C84.8892 8.84535 84.8654 8.18541 84.9882 7.52447C85.1133 6.85132 85.4295 6.26221 85.7638 5.67468C86.1051 5.07503 86.6056 4.63241 87.1484 4.24585C87.6008 3.92365 88.1248 3.69672 88.6485 3.51941C89.7838 3.13503 90.9626 3.03668 92.1517 3.17753C92.9058 3.26686 93.6387 3.46395 94.3581 3.71031C94.953 3.9175 95.5285 4.17641 96.0781 4.48407C96.3766 4.64893 96.6513 4.85696 96.9422 5.02924C97.3786 5.28777 97.7634 5.61621 98.1288 5.9447C98.6965 6.45655 99.1991 7.03646 99.6252 7.67134C100.402 8.82455 100.928 10.0583 101.037 11.4595C101.134 12.7034 100.853 13.8448 100.144 14.8698C99.7449 15.446 99.2074 15.8846 98.6158 16.2529C97.893 16.7033 97.0881 17.0054 96.2479 17.1416C94.7492 17.3854 93.2702 17.1982 91.8237 16.7608C91.6777 16.7164 91.5219 16.7157 91.3754 16.7587C91.0646 16.8354 90.9886 17.0968 90.859 17.3274C90.2764 18.3631 89.6555 19.3788 89.1128 20.4347C88.7036 21.2309 88.2032 21.9729 87.8207 22.7859C87.4453 23.584 86.9652 24.3328 86.531 25.1032M88.593 7.62715C88.1726 8.26815 88.2053 8.96169 88.4697 9.61998C89.0021 10.9456 89.9525 11.9269 91.1694 12.6552C91.7446 13.0097 92.3562 13.3017 92.9936 13.5262C94.0969 13.9001 95.2129 14.0223 96.3223 13.6443C97.3401 13.2975 97.8113 12.3859 97.64 11.3206C97.5072 10.4946 97.0761 9.8148 96.5477 9.1884C95.9666 8.49956 95.246 7.98195 94.4682 7.54857C93.8689 7.21472 93.2591 6.90228 92.581 6.72952C91.809 6.53288 91.0418 6.43121 90.2518 6.5745C89.5669 6.69876 88.9657 6.95649 88.6068 7.60322" stroke="#FBBC58" stroke-linecap="round" stroke-linejoin="round"/>
</svg>
