<svg width="28" height="28" viewBox="0 0 28 28" fill="none" xmlns="http://www.w3.org/2000/svg">
<rect y="28" width="28" height="28" rx="6" transform="rotate(-90 0 28)" fill="#FBBC58"/>
<path d="M20.2222 21.2H7.77778V11.3H20.2222V21.2ZM17.5556 5V6.8H10.4444V5H8.66667V6.8H7.77778C6.79111 6.8 6 7.601 6 8.6V21.2C6 21.6774 6.1873 22.1352 6.5207 22.4728C6.8541 22.8104 7.30628 23 7.77778 23H20.2222C20.6937 23 21.1459 22.8104 21.4793 22.4728C21.8127 22.1352 22 21.6774 22 21.2V8.6C22 7.601 21.2 6.8 20.2222 6.8H19.3333V5H17.5556ZM18.4444 14.9H14V19.4H18.4444V14.9Z" fill="#F1F1F1"/>
</svg>
