<svg width="77" height="66" viewBox="0 0 77 66" fill="none" xmlns="http://www.w3.org/2000/svg">
<path d="M60.639 16.6965C58.7982 14.0532 60.7995 12.0043 61.824 9.87359C63.5365 6.31214 63.3177 4.54495 60.6435 2.2616C59.044 0.895868 57.1794 0.497297 55.6604 1.93073C52.0471 5.34025 48.375 4.67362 44.848 2.20433C44.0403 1.54745 43.0374 1.16643 41.9904 1.11868C40.9433 1.07092 39.9088 1.35903 39.0428 1.93958C34.3084 4.87675 29.7973 4.88931 25.0775 1.92794C24.1053 1.26587 22.9358 0.942241 21.755 1.00847C20.5742 1.0747 19.4498 1.527 18.5604 2.29349C15.3861 4.88595 12.3754 4.9393 9.26137 2.27414C7.36543 0.651489 5.34891 0.622887 3.48957 2.28348C1.52201 4.04073 0.206207 5.96037 1.90251 8.73792C4.37535 12.787 4.73867 16.8589 2.39527 21.2941C0.397121 25.0758 0.602507 29.071 2.64408 33.0535C4.58778 36.8451 4.86201 40.6153 2.02279 44.4833C-0.0229773 47.2703 1.17661 49.9361 4.22114 52.047C5.65727 53.0427 6.79312 53.1831 8.1147 52.0175C11.5055 49.027 15.5212 48.9462 18.8161 51.3925C21.6418 53.4903 24.0401 52.7555 26.2055 51.5334C30.2672 49.2411 33.8442 49.2434 37.9037 51.5404C40.367 52.9341 43.2496 53.7007 45.9979 51.2921C48.6625 48.9569 51.521 49.2563 54.4854 51.2133C58.2837 53.7207 61.9867 52.3103 62.9525 48.2132C63.326 46.6291 62.5485 45.307 61.7828 44.0458C59.6593 40.5481 59.3662 37.1104 61.3708 33.3835C62.4747 31.4134 63.0523 29.2003 63.0496 26.9511C63.0468 24.7018 62.4637 22.4901 61.3548 20.5227C60.8311 19.4494 60.5852 18.2655 60.639 17.0762M16.9928 51.252C16.0916 53.2772 15.19 55.3023 14.2881 57.3273C12.8988 60.429 14.5647 64.1314 17.7698 64.9042C19.1022 65.2255 20.2185 64.605 21.2461 63.7886C24.3575 61.3165 27.7933 60.9545 30.8357 63.4757C33.5782 65.7485 36.2427 65.0138 38.5689 63.6916C42.6245 61.3865 46.2041 61.3948 50.2637 63.6917C52.727 65.0855 55.6095 65.8521 58.3578 63.4435C61.0224 61.1082 64.0336 61.1961 66.8077 63.4168C70.8938 66.6876 73.6688 64.1531 75.3271 60.37C75.6738 59.5792 76.8241 57.1054 74.9785 54.7961C70.7839 50.3424 75.356 46.808 75.356 40.0743C75.3112 36.8282 74.503 33.6364 72.9947 30.7485C71.3041 27.3382 72.7598 24.5188 74.5064 21.6112C74.9085 20.8794 75.1479 20.0719 75.2089 19.2423C75.2699 18.4127 75.1511 17.5798 74.8603 16.7987C74.5695 16.0176 74.1133 15.3061 73.522 14.7112C72.9306 14.1164 72.2176 13.6517 71.4299 13.348C70.9047 13.1406 70.3287 13.0916 69.775 13.207C69.2214 13.3225 68.7152 13.5973 68.3209 13.9964C66.3626 15.9345 63.6938 16.404 61.0252 16.6965M13.5166 11.76C12.1327 11.95 11.9561 12.8792 11.959 14.0384C11.9819 22.8987 11.9668 31.7591 11.9882 40.6194C12.074 41.08 12.2225 41.527 12.4298 41.9485H51.9484V11.76H13.9028" stroke="#FBBC58" stroke-linecap="round" stroke-linejoin="round"/>
</svg>
