<svg width="80" height="31" viewBox="0 0 80 31" fill="none" xmlns="http://www.w3.org/2000/svg">
<path d="M49.188 20.08L46.766 22.222H50.924V24H43.812V22.46L47.914 18.666C48.4553 18.162 48.726 17.6487 48.726 17.126C48.726 16.7433 48.5953 16.4447 48.334 16.23C48.0727 16.006 47.732 15.894 47.312 15.894C46.8547 15.894 46.4953 16.034 46.234 16.314C45.9727 16.5847 45.842 16.972 45.842 17.476H43.77C43.77 16.4213 44.1013 15.5907 44.764 14.984C45.4267 14.368 46.2947 14.06 47.368 14.06C48.404 14.06 49.23 14.3307 49.846 14.872C50.4713 15.4133 50.784 16.1507 50.784 17.084C50.784 18.1387 50.252 19.1373 49.188 20.08ZM57.8772 18.918C58.8385 19.45 59.3192 20.2153 59.3192 21.214C59.3192 22.0633 58.9879 22.7633 58.3252 23.314C57.6719 23.8647 56.7805 24.14 55.6512 24.14C54.5219 24.14 53.6259 23.8647 52.9632 23.314C52.3099 22.754 51.9832 22.054 51.9832 21.214C51.9832 20.738 52.1092 20.2993 52.3612 19.898C52.6132 19.4967 52.9725 19.17 53.4392 18.918C52.7112 18.358 52.3472 17.672 52.3472 16.86C52.3472 16.076 52.6599 15.4133 53.2852 14.872C53.9199 14.3307 54.7085 14.06 55.6512 14.06C56.5939 14.06 57.3825 14.3307 58.0172 14.872C58.6519 15.4133 58.9692 16.076 58.9692 16.86C58.9692 17.6813 58.6052 18.3673 57.8772 18.918ZM56.5752 16.188C56.3325 15.9547 56.0245 15.838 55.6512 15.838C55.2779 15.838 54.9652 15.9547 54.7132 16.188C54.4705 16.412 54.3492 16.6873 54.3492 17.014C54.3492 17.3407 54.4705 17.616 54.7132 17.84C54.9652 18.0547 55.2779 18.162 55.6512 18.162C56.0245 18.162 56.3325 18.0547 56.5752 17.84C56.8272 17.616 56.9532 17.3407 56.9532 17.014C56.9532 16.6873 56.8272 16.412 56.5752 16.188ZM54.4472 22.012C54.7459 22.2453 55.1472 22.362 55.6512 22.362C56.1552 22.362 56.5565 22.2453 56.8552 22.012C57.1632 21.7693 57.3172 21.4613 57.3172 21.088C57.3172 20.7147 57.1632 20.402 56.8552 20.15C56.5472 19.898 56.1459 19.772 55.6512 19.772C55.1659 19.772 54.7692 19.898 54.4612 20.15C54.1532 20.402 53.9992 20.7147 53.9992 21.088C53.9992 21.4613 54.1485 21.7693 54.4472 22.012ZM73.7684 16.776V24H71.9904V19.492L70.0584 24H68.6164L66.6844 19.506V24H64.9064V16.776H67.3564L69.4004 21.452L71.4304 16.776H73.7684ZM78.8113 18.176H74.8633V17.42L76.4733 15.852C76.856 15.488 77.1407 15.194 77.3273 14.97C77.5233 14.7367 77.654 14.5313 77.7193 14.354C77.794 14.1767 77.8313 13.9807 77.8313 13.766C77.8313 13.4767 77.7427 13.2573 77.5653 13.108C77.3973 12.9493 77.1733 12.87 76.8933 12.87C76.6133 12.87 76.3567 12.926 76.1233 13.038C75.8993 13.1407 75.666 13.2853 75.4233 13.472L74.9333 12.828C75.204 12.5947 75.498 12.408 75.8153 12.268C76.142 12.128 76.506 12.058 76.9073 12.058C77.5047 12.058 77.9713 12.2073 78.3073 12.506C78.6527 12.7953 78.8253 13.1967 78.8253 13.71C78.8253 14.1673 78.6853 14.578 78.4053 14.942C78.1347 15.306 77.738 15.7353 77.2153 16.23L76.0813 17.308H78.8113V18.176Z" fill="#686868"/>
<path d="M4.28643 9.62049V30M4.28643 9.62049L1 13.5655M4.28643 9.62049L7.57288 13.5655M4.28643 30L7.57288 26.0551M4.28643 30L1 26.0551M10.1125 4.2065H31M10.1125 4.2065L14.1558 7.41302M10.1125 4.2065L14.1558 1M31 4.2065L26.9567 1M31 4.2065L26.9567 7.41302M10.1125 9.62049H31V30H10.1125V9.62049Z" stroke="#686868" stroke-miterlimit="10"/>
</svg>
