<svg xmlns="http://www.w3.org/2000/svg" width="17.764" height="16.94" viewBox="0 0 17.764 16.94">
  <g id="star" transform="translate(0 -0.452)">
    <path id="Path_2259" data-name="Path 2259" d="M8.882,2.306,6.889,7.023l-5.1.438,3.871,3.354L4.5,15.8l4.385-2.644L13.267,15.8l-1.16-4.988,3.87-3.353-5.1-.438L8.882,2.306m0-1.855A.449.449,0,0,1,9.3.731l2.26,5.348,5.785.5a.456.456,0,0,1,.26.8l-4.388,3.8,1.315,5.655a.456.456,0,0,1-.679.493l-4.971-3-4.971,3a.456.456,0,0,1-.679-.493l1.315-5.655L.158,7.374a.456.456,0,0,1,.26-.8l5.785-.5L8.462.731A.449.449,0,0,1,8.882.452Z" transform="translate(0)" fill="#e7b000"/>
  </g>
</svg>