<svg xmlns="http://www.w3.org/2000/svg" viewBox="0 0 17.76 16.94"><defs><style>.f7e41c20-59dc-4208-a503-acc02b9e1542{fill:#e7b000;}</style></defs><g data-name="Layer 2"><g data-name="Layer 1"><path class="f7e41c20-59dc-4208-a503-acc02b9e1542" d="M17.76,6.62a.45.45,0,0,0-.41-.49l-5.79-.5L9.3.28A.45.45,0,0,0,8.88,0h0a.45.45,0,0,0-.39.27L6.2,5.62l-5.78.5a.47.47,0,0,0-.31.16.46.46,0,0,0,.05.64l4.39,3.81L3.23,16.38a.5.5,0,0,0,.06.34.44.44,0,0,0,.46.21A.44.44,0,0,0,4,16.88l1.61-1,3.3-2,5,3a.46.46,0,0,0,.68-.5l-1.31-5.65,4.39-3.8A.46.46,0,0,0,17.76,6.62Zm-5.65,3.74,1.16,5L8.89,12.71h0V1.86h0l2,4.71L16,7Z"/></g></g></svg>