<svg width="121" height="63" viewBox="0 0 121 63" fill="none" xmlns="http://www.w3.org/2000/svg">
<path d="M61.9704 28.2074C62.8253 31.4016 62.5726 34.7006 62.8283 37.9484C62.9633 39.6617 63.2149 41.4594 62.6337 43.148C61.494 46.4596 59.2995 48.2572 55.649 48.6572C51.2829 49.1355 48.0958 47.3335 46.5603 43.1678C45.7352 40.9297 46.3085 38.7747 46.389 36.5866C46.5667 31.7539 46.8317 26.9244 47.0476 22.093C47.0946 21.0426 47.1882 20.2063 48.6352 20.2582C52.626 20.4014 56.6211 20.4244 60.614 20.5164C61.2729 20.5316 62.2278 20.611 62.1469 21.4089C61.9246 23.6024 63.0447 25.8265 61.9704 27.981M7.27005 32.51C8.04285 32.564 8.70111 32.9971 9.53056 32.9921C17.6675 32.9436 25.8047 32.9411 33.942 32.9848C34.6814 32.9981 35.4017 32.7498 35.9764 32.2835M26.6784 7.59277C28.5247 7.82691 28.5004 4.35823 28.4596 2.39332C28.4436 1.61949 27.8309 0.969494 26.7081 1.00111C23.4708 1.09244 20.2291 1.05744 16.9897 1.02051C15.8405 1.00746 15.3151 1.46805 15.4057 2.61865C15.4175 2.7687 15.405 2.92051 15.4076 3.07144C15.4831 7.32241 14.5997 7.42165 19.476 7.39605C21.8098 7.38377 24.1603 7.12194 26.483 7.60044M31.9078 55.1549C36.3494 55.7987 37.8318 52.3234 39.8345 49.5047C41.2091 47.5701 41.8547 45.3502 42.5046 43.1452C43.3056 40.4277 41.3154 38.4201 38.4605 38.5841C35.3815 38.7609 32.2845 38.6241 29.1954 38.6241C22.7157 38.6241 16.2359 38.5953 9.75654 38.6409C7.70128 38.6553 5.62024 39.236 3.6535 38.1712M31.4557 54.9285C29.8203 53.8847 28.3158 55.2451 26.7078 55.1931C21.2862 55.0175 15.8588 55.03 10.4349 54.9131C8.74336 54.8767 7.88533 55.6874 7.22834 57.1745C6.64104 58.5038 6.34229 59.9915 7.12087 60.9959C7.77501 61.8398 9.184 62.1272 10.6611 61.9499C10.8695 61.8321 11.0998 61.7586 11.3377 61.7338C17.5119 62.2294 23.6964 61.7937 29.8732 61.9611C31.2317 61.9979 32.5257 61.6348 33.956 61.8595C36.1733 62.2077 36.7831 61.1015 36.7127 58.7764C36.6648 57.1942 35.4004 56.5396 34.8462 55.3814M16.9895 7.82689C16.4017 9.92215 16.8595 12.0627 16.8378 14.1683C16.8062 17.232 15.7039 19.8718 14.5075 22.5481C13.4208 24.979 11.4405 26.6989 9.76708 28.6694C8.13586 30.5902 6.63605 32.6234 4.9964 34.5366C3.56354 36.2086 2.74904 38.3099 1.61989 40.1244C0.256075 42.3161 1.37024 45.4558 2.76932 47.8971C4.30105 50.5697 6.53071 52.7284 8.40021 55.1549M26.709 8.05336C26.6642 12.4839 26.4271 16.9542 28.5304 21.0675C29.6954 23.5082 31.206 25.7677 33.0154 27.776C34.8522 29.7153 36.5153 31.821 38.2325 33.8722C39.2711 35.1129 42.6832 37.6194 42.6197 41.3066M11.1126 61.4956C10.699 60.2476 10.7068 58.8979 11.1347 57.6548C12.0423 55.3946 11.5193 53.5657 10.2795 51.4892C8.07535 47.7974 6.34819 43.8343 7.04401 39.3035M36.4285 39.3035C36.6394 43.704 35.4212 48.0546 32.9564 51.7031C31.4872 53.8865 31.6888 55.9873 32.2391 58.0709C32.4795 59.1199 32.5205 60.2049 32.3599 61.2691M31.6818 39.3035C31.0754 43.4069 31.1661 47.6232 29.4827 51.5581C29.2848 51.985 29.1963 52.4547 29.225 52.9245C29.2538 53.3944 29.399 53.8496 29.6474 54.2492M61.7443 27.981H47.2781M30.6646 25.49C29.3256 26.0554 27.907 26.0814 26.4859 26.204C25.4664 26.2921 25.1991 25.5665 24.667 25.045C21.9746 22.406 20.5501 22.7517 18.3426 25.2608C17.3409 26.3993 15.3124 26.4776 13.373 25.49M54.5113 49.2673C54.5866 53.3434 54.6619 57.4195 54.7373 61.4956M61.7443 61.9485H47.2781M53.8331 44.7383C56.985 45.1165 58.8502 43.4226 58.8038 40.2093C58.7776 38.3976 58.7305 36.5861 58.6929 34.7745" stroke="#FBBC58" stroke-linecap="round" stroke-linejoin="round"/>
<path d="M120 56.2775C118.412 56.1571 117.344 56.3113 116.054 57.8993C113.923 60.5216 110.739 62.0131 107.096 61.9928C100.809 61.9578 94.5223 61.9599 88.2354 61.9992C86.5148 62.0104 84.7867 61.9089 83.2937 61.1155C81.3146 60.0639 78.9513 59.3642 78.1434 56.8564M116.526 56.691C115.942 56.2128 115.254 56.1866 114.54 56.1894C111.287 56.2019 108.033 56.1948 104.779 56.1948H95.0184C91.7647 56.1948 88.5065 56.3025 85.2586 56.1647C81.9991 56.0264 78.7505 56.6997 75.4948 56.2049C75.3413 56.1816 75.1654 56.3051 75 56.3602M117.849 53.218C116.891 52.9008 116.891 51.942 116.53 51.2315C114.222 46.6867 110.738 43.7928 105.443 44.0069C103.716 44.0598 102.018 44.4626 100.451 45.1907C98.8838 45.9189 97.4811 46.9574 96.3274 48.2433C95.9657 48.6366 95.7082 49.2496 95.0184 49.2489M103.456 36.3494C101.905 35.4241 100.71 33.9235 98.8248 33.5319C97.5109 33.259 96.2239 32.7487 94.8503 33.2213C94.3134 36.0788 96.599 40.1582 99.3134 41.3258C100.784 41.9582 102.187 41.7781 103.249 40.7707C104.184 39.8825 104.246 38.5757 103.631 37.3369C103.538 37.0713 103.479 36.7951 103.456 36.5147M93.6949 53.5488C92.798 50.3893 90.5812 48.4811 87.5632 47.6318C83.6072 46.5183 80.3828 48.1588 77.6736 50.9287C76.9874 51.6303 76.0498 52.3268 76.1581 53.5488M112.969 53.3834C112.085 50.4574 108.691 47.0446 104.784 47.6248C101.337 48.1367 98.8561 50.0556 97.5827 53.3834M105.276 41.4761C108.251 40.9618 109.579 39.2492 110.438 34.6811C107.862 33.862 105.689 34.7541 103.621 36.184M103.952 29.4034C102.157 28.5016 101.678 26.5762 103.003 24.4695C103.703 23.357 103.926 22.3334 103.615 21.1361C103.397 20.298 103.045 19.5577 101.967 19.6461M94.1912 40.2358C90.3954 39.841 88.7776 41.1267 87.1079 43.9748C86.9103 44.3118 86.8849 44.6466 86.4154 44.6183M96.6728 44.6183C95.4044 44.329 94.5733 42.9994 93.0276 43.2629C91.6075 43.5049 90.5195 44.4519 90.386 45.9413M108.667 53.3834C106.972 51.2085 104.825 50.9054 102.795 52.5574C102.444 52.8427 102.233 53.3661 101.636 53.218M89.0625 53.218C86.5604 50.3522 83.3492 50.4184 81.0386 53.3834M97.6654 23.4498C97.9321 22.8036 97.9736 22.1121 98.2691 21.4397C98.8941 20.0175 97.7849 17.763 96.3419 17M96.6728 25.4343C96.8305 26.5888 96.2024 27.9789 97.6654 28.7419M91.7096 25.7651C91.7992 27.0382 91.3693 28.3678 92.1232 29.5688" stroke="#FBBC58" stroke-linecap="round" stroke-linejoin="round"/>
</svg>
