<svg width="80" height="31" viewBox="0 0 80 31" fill="none" xmlns="http://www.w3.org/2000/svg">
<path d="M50.126 15.74L47.802 18.106C48.5767 18.1993 49.216 18.512 49.72 19.044C50.224 19.5667 50.476 20.2387 50.476 21.06C50.476 21.956 50.1447 22.6933 49.482 23.272C48.8193 23.8507 47.9607 24.14 46.906 24.14C45.8513 24.14 45.0067 23.8693 44.372 23.328C43.7467 22.7867 43.4013 22.0167 43.336 21.018L45.408 20.78C45.4173 21.2747 45.5573 21.6527 45.828 21.914C46.0987 22.1753 46.4627 22.306 46.92 22.306C47.3867 22.306 47.7507 22.18 48.012 21.928C48.2733 21.676 48.404 21.3353 48.404 20.906C48.404 20.486 48.25 20.1547 47.942 19.912C47.634 19.66 47.1907 19.534 46.612 19.534H45.716V17.98L47.676 15.978H43.812V14.2H50.126V15.74ZM52.7344 22.698C51.9784 21.7367 51.6004 20.5373 51.6004 19.1C51.6004 17.6627 51.9784 16.4633 52.7344 15.502C53.4997 14.5407 54.461 14.06 55.6184 14.06C56.7757 14.06 57.7324 14.5407 58.4884 15.502C59.2444 16.4633 59.6224 17.6627 59.6224 19.1C59.6224 20.5373 59.2444 21.7367 58.4884 22.698C57.7324 23.6593 56.7757 24.14 55.6184 24.14C54.461 24.14 53.4997 23.6593 52.7344 22.698ZM54.2184 16.804C53.8544 17.4107 53.6724 18.176 53.6724 19.1C53.6724 20.024 53.8544 20.7893 54.2184 21.396C54.5917 22.0027 55.0584 22.306 55.6184 22.306C56.1784 22.306 56.6404 22.0027 57.0044 21.396C57.3684 20.7893 57.5504 20.024 57.5504 19.1C57.5504 18.176 57.3684 17.4107 57.0044 16.804C56.6404 16.1973 56.1784 15.894 55.6184 15.894C55.0584 15.894 54.5917 16.1973 54.2184 16.804ZM74.0555 16.776V24H72.2775V19.492L70.3455 24H68.9035L66.9715 19.506V24H65.1935V16.776H67.6435L69.6875 21.452L71.7175 16.776H74.0555ZM79.0985 18.176H75.1505V17.42L76.7605 15.852C77.1431 15.488 77.4278 15.194 77.6145 14.97C77.8105 14.7367 77.9411 14.5313 78.0065 14.354C78.0811 14.1767 78.1185 13.9807 78.1185 13.766C78.1185 13.4767 78.0298 13.2573 77.8525 13.108C77.6845 12.9493 77.4605 12.87 77.1805 12.87C76.9005 12.87 76.6438 12.926 76.4105 13.038C76.1865 13.1407 75.9531 13.2853 75.7105 13.472L75.2205 12.828C75.4911 12.5947 75.7851 12.408 76.1025 12.268C76.4291 12.128 76.7931 12.058 77.1945 12.058C77.7918 12.058 78.2585 12.2073 78.5945 12.506C78.9398 12.7953 79.1125 13.1967 79.1125 13.71C79.1125 14.1673 78.9725 14.578 78.6925 14.942C78.4218 15.306 78.0251 15.7353 77.5025 16.23L76.3685 17.308H79.0985V18.176Z" fill="#686868"/>
<path d="M4.28643 9.62049V30M4.28643 9.62049L1 13.5655M4.28643 9.62049L7.57288 13.5655M4.28643 30L7.57288 26.0551M4.28643 30L1 26.0551M10.1125 4.2065H31M10.1125 4.2065L14.1558 7.41302M10.1125 4.2065L14.1558 1M31 4.2065L26.9567 1M31 4.2065L26.9567 7.41302M10.1125 9.62049H31V30H10.1125V9.62049Z" stroke="#686868" stroke-miterlimit="10"/>
</svg>
