<svg width="80" height="31" viewBox="0 0 80 31" fill="none" xmlns="http://www.w3.org/2000/svg">
<path d="M50.126 15.74L47.802 18.106C48.5767 18.1993 49.216 18.512 49.72 19.044C50.224 19.5667 50.476 20.2387 50.476 21.06C50.476 21.956 50.1447 22.6933 49.482 23.272C48.8193 23.8507 47.9607 24.14 46.906 24.14C45.8513 24.14 45.0067 23.8693 44.372 23.328C43.7467 22.7867 43.4013 22.0167 43.336 21.018L45.408 20.78C45.4173 21.2747 45.5573 21.6527 45.828 21.914C46.0987 22.1753 46.4627 22.306 46.92 22.306C47.3867 22.306 47.7507 22.18 48.012 21.928C48.2733 21.676 48.404 21.3353 48.404 20.906C48.404 20.486 48.25 20.1547 47.942 19.912C47.634 19.66 47.1907 19.534 46.612 19.534H45.716V17.98L47.676 15.978H43.812V14.2H50.126V15.74ZM55.7838 17.518C56.6611 17.518 57.3984 17.8167 57.9958 18.414C58.5931 19.002 58.8918 19.7767 58.8918 20.738C58.8918 21.718 58.5464 22.53 57.8558 23.174C57.1651 23.818 56.2971 24.14 55.2518 24.14C54.2344 24.14 53.4131 23.8833 52.7878 23.37C52.1624 22.8567 51.8031 22.138 51.7098 21.214L53.7678 20.976C53.8144 21.3867 53.9684 21.7133 54.2298 21.956C54.4911 22.1893 54.8318 22.306 55.2518 22.306C55.7091 22.306 56.0824 22.1613 56.3718 21.872C56.6704 21.5733 56.8198 21.1953 56.8198 20.738C56.8198 20.2807 56.6798 19.9073 56.3998 19.618C56.1198 19.3193 55.7604 19.17 55.3218 19.17C54.6498 19.17 54.1644 19.4407 53.8658 19.982L52.0038 19.758L52.6898 14.2H58.1358V15.978H54.2718L54.0058 18.008C54.5378 17.6813 55.1304 17.518 55.7838 17.518ZM73.1805 16.776V24H71.4025V19.492L69.4705 24H68.0285L66.0965 19.506V24H64.3185V16.776H66.7685L68.8125 21.452L70.8425 16.776H73.1805ZM78.2235 18.176H74.2755V17.42L75.8855 15.852C76.2681 15.488 76.5528 15.194 76.7395 14.97C76.9355 14.7367 77.0661 14.5313 77.1315 14.354C77.2061 14.1767 77.2435 13.9807 77.2435 13.766C77.2435 13.4767 77.1548 13.2573 76.9775 13.108C76.8095 12.9493 76.5855 12.87 76.3055 12.87C76.0255 12.87 75.7688 12.926 75.5355 13.038C75.3115 13.1407 75.0781 13.2853 74.8355 13.472L74.3455 12.828C74.6161 12.5947 74.9101 12.408 75.2275 12.268C75.5541 12.128 75.9181 12.058 76.3195 12.058C76.9168 12.058 77.3835 12.2073 77.7195 12.506C78.0648 12.7953 78.2375 13.1967 78.2375 13.71C78.2375 14.1673 78.0975 14.578 77.8175 14.942C77.5468 15.306 77.1501 15.7353 76.6275 16.23L75.4935 17.308H78.2235V18.176Z" fill="#686868"/>
<path d="M4.28643 9.62049V30M4.28643 9.62049L1 13.5655M4.28643 9.62049L7.57288 13.5655M4.28643 30L7.57288 26.0551M4.28643 30L1 26.0551M10.1125 4.2065H31M10.1125 4.2065L14.1558 7.41302M10.1125 4.2065L14.1558 1M31 4.2065L26.9567 1M31 4.2065L26.9567 7.41302M10.1125 9.62049H31V30H10.1125V9.62049Z" stroke="#686868" stroke-miterlimit="10"/>
</svg>
