<svg width="19" height="19" viewBox="0 0 19 19" fill="none" xmlns="http://www.w3.org/2000/svg">
<path d="M9.5 0C4.25435 0 0 4.25435 0 9.5C0 14.7457 4.25435 19 9.5 19C14.7457 19 19 14.7457 19 9.5C19 4.25435 14.7457 0 9.5 0ZM9.5 0.826087C14.2913 0.826087 18.1739 4.7087 18.1739 9.5C18.1739 14.2913 14.2913 18.1739 9.5 18.1739C4.7087 18.1739 0.826087 14.2913 0.826087 9.5C0.826087 4.7087 4.7087 0.826087 9.5 0.826087Z" fill="#686868"/>
<path d="M9.33478 12.4326C9.08696 12.6804 8.83913 12.9283 8.5913 13.1348C8.42609 13.3 8.30217 13.4239 8.13696 13.5891C8.01304 13.713 7.84783 13.7957 7.68261 13.837C7.6413 13.837 7.6413 13.837 7.6 13.837C7.6 13.713 7.6 13.5891 7.6413 13.4652C7.68261 13.0935 7.68261 12.763 7.72391 12.3913C7.76522 12.0196 7.76522 11.6478 7.80652 11.2348C7.80652 11.1935 7.80652 11.1935 7.84783 11.1935C8.46739 10.6565 9.08696 10.0783 9.66522 9.5413C10.6152 8.67391 11.5652 7.80652 12.5152 6.93913C12.5565 6.89783 12.5565 6.89783 12.5978 6.85652C12.6391 6.77391 12.6391 6.73261 12.5565 6.73261C12.4739 6.6913 12.35 6.73261 12.2674 6.81522C12.1022 6.89783 11.937 7.02174 11.7717 7.10435C9.99565 8.21957 8.17826 9.33478 6.40217 10.45C6.36087 10.4913 6.31957 10.4913 6.27826 10.45C5.45217 10.2022 4.62609 9.95435 3.8413 9.70652C3.7587 9.66522 3.67609 9.66522 3.59348 9.62391C3.42826 9.5413 3.38696 9.41739 3.51087 9.25217C3.59348 9.16957 3.67609 9.08696 3.7587 9.04565C4.00652 8.92174 4.25435 8.83913 4.54348 8.75652C6.11304 8.13696 7.68261 7.5587 9.25217 6.93913C10.7804 6.36087 12.3087 5.78261 13.837 5.20435C13.9196 5.16304 13.9609 5.16304 14.0435 5.16304C14.2913 5.12174 14.4978 5.28696 14.5804 5.53478C14.6217 5.7 14.6217 5.82391 14.5804 5.98913C14.3739 6.85652 14.2087 7.72391 14.0022 8.5913C13.7543 9.66522 13.5478 10.7804 13.3 11.8543C13.1761 12.5152 13.0109 13.1761 12.887 13.837C12.8457 13.9609 12.8457 14.0435 12.763 14.1674C12.6391 14.4152 12.4739 14.4978 12.1848 14.4152C12.0609 14.3739 11.937 14.3326 11.813 14.25C10.987 13.6717 10.2022 13.0522 9.37609 12.4739C9.37609 12.4739 9.37609 12.4739 9.33478 12.4326Z" fill="#686868"/>
</svg>
