<svg width="19" height="19" viewBox="0 0 19 19" fill="none" xmlns="http://www.w3.org/2000/svg">
<path d="M9.50395 0C4.26049 0 0.00791069 4.25435 0.00791069 9.5C0.00791069 11.1935 0.462069 12.763 1.24653 14.1261L0.00791069 18.463C-0.0333765 18.6696 0.090485 18.9174 0.296921 18.9587C0.379495 18.9587 0.420782 18.9587 0.503357 18.9587L5.04494 17.8435C6.36613 18.587 7.89376 19 9.50395 19C14.7474 19 19 14.7457 19 9.5C19 4.25435 14.7474 0 9.50395 0ZM9.50395 0.826087C14.2933 0.826087 18.1743 4.7087 18.1743 9.5C18.1743 14.2913 14.2933 18.1739 9.50395 18.1739C7.97633 18.1739 6.53128 17.7609 5.29267 17.0587C5.21009 17.0174 5.08623 16.9761 5.00366 17.0174L1.04009 18.0087L2.07227 14.2087C2.11356 14.0848 2.07227 14.0022 2.03098 13.8783C1.28781 12.5978 0.833654 11.1109 0.833654 9.5C0.833654 4.7087 4.71465 0.826087 9.50395 0.826087ZM6.03583 4.54348C5.78811 4.54348 5.37524 4.62609 5.08623 4.95652C4.87979 5.16304 4.13663 5.90652 4.13663 7.22826C4.13663 8.63261 5.08623 9.83043 5.21009 9.95435C5.21009 9.95435 5.37524 10.1609 5.58168 10.45C5.78811 10.7391 6.07712 11.0696 6.44871 11.4826C7.19187 12.2674 8.22405 13.1761 9.54524 13.713C10.1233 13.9609 10.6187 14.1261 10.9903 14.25C11.6509 14.4565 12.2702 14.4152 12.7244 14.3739C13.0546 14.3326 13.4262 14.1674 13.7978 13.9196C14.1694 13.6717 14.541 13.3826 14.7061 12.9696C14.83 12.6391 14.8713 12.35 14.9126 12.1022C14.9126 11.9783 14.9126 11.8957 14.9126 11.7717C14.9126 11.6891 14.9126 11.6065 14.83 11.4413C14.6236 11.1109 14.4171 11.1109 14.2107 10.987C14.0868 10.9043 13.7152 10.7391 13.3849 10.5739C13.0134 10.4087 12.7244 10.2435 12.5179 10.2022C12.3941 10.1609 12.2289 10.0783 12.0225 10.1196C11.816 10.1609 11.6096 10.2848 11.4857 10.4913C11.3619 10.6565 10.9077 11.2348 10.7426 11.4C10.7426 11.4 10.7426 11.4 10.7013 11.3587C10.5361 11.2761 10.2884 11.1935 9.9994 11.0283C9.71039 10.863 9.29752 10.6152 8.84336 10.2435C8.18277 9.66522 7.72861 8.96304 7.60475 8.71522C7.76989 8.55 7.89376 8.38478 7.97633 8.26087C8.14148 8.09565 8.18277 7.93043 8.26534 7.76522C8.43049 7.47609 8.34791 7.14565 8.26534 6.98043C8.26534 6.98043 8.22405 6.85652 8.18277 6.73261C8.14148 6.6087 8.0589 6.44348 7.97633 6.23696C7.81118 5.86522 7.64603 5.45217 7.56346 5.20435C7.4396 4.91522 7.27445 4.7087 7.06801 4.62609C6.86158 4.54348 6.65514 4.54348 6.65514 4.54348C6.40742 4.54348 6.20098 4.54348 6.03583 4.54348Z" fill="#686868"/>
</svg>
