<svg width="18" height="18" viewBox="0 0 18 18" fill="none" xmlns="http://www.w3.org/2000/svg">
<path d="M5.31818 0C2.37273 0 0 2.37273 0 5.31818V12.6818C0 15.6273 2.37273 18 5.31818 18H12.6818C15.6273 18 18 15.6273 18 12.6818V5.31818C18 2.37273 15.6273 0 12.6818 0H5.31818ZM5.31818 0.818182H12.6818C15.1773 0.818182 17.1818 2.82273 17.1818 5.31818V12.6818C17.1818 15.1773 15.1773 17.1818 12.6818 17.1818H5.31818C2.82273 17.1818 0.818182 15.1773 0.818182 12.6818V5.31818C0.818182 2.82273 2.82273 0.818182 5.31818 0.818182ZM13.9091 3.27273C13.4591 3.27273 13.0909 3.64091 13.0909 4.09091C13.0909 4.54091 13.4591 4.90909 13.9091 4.90909C14.3591 4.90909 14.7273 4.54091 14.7273 4.09091C14.7273 3.64091 14.3591 3.27273 13.9091 3.27273ZM9 4.5C6.50455 4.5 4.5 6.50455 4.5 9C4.5 11.4955 6.50455 13.5 9 13.5C11.4955 13.5 13.5 11.4955 13.5 9C13.5 6.50455 11.4955 4.5 9 4.5Z" fill="#686868"/>
</svg>
