<svg width="193" height="41" viewBox="0 0 193 41" fill="none" xmlns="http://www.w3.org/2000/svg">
<path d="M0.000276115 9.0798V9.03003C-0.00921953 7.83131 0.226293 6.6429 0.692867 5.53518C1.15944 4.42746 1.84758 3.42295 2.71656 2.58113C3.58553 1.73931 4.61767 1.0773 5.75184 0.634294C6.88601 0.191292 8.09917 -0.0236911 9.31946 0.00206929C12.5191 0.00206929 14.4488 0.849891 16.3022 2.39625L13.8394 5.31411C12.468 4.19189 11.2491 3.54358 9.19255 3.54358C6.34849 3.54358 4.08832 6.01264 4.08832 8.98026V9.03003C4.08832 12.2223 6.32293 14.5667 9.47147 14.5667C10.7803 14.6055 12.0685 14.2391 13.1537 13.5194V11.0252H9.21766V7.7083H16.9372V15.2899C14.8301 17.0833 12.1329 18.0666 9.34456 18.058C3.80892 18.058 0.000276115 14.2425 0.000276115 9.0798ZM20.6938 0.30156H28.8197C31.0794 0.30156 32.832 0.925227 33.9997 2.0721C34.5121 2.60361 34.9109 3.23053 35.1725 3.91587C35.4341 4.60121 35.5533 5.33108 35.5231 6.06241V6.11218C35.5802 7.2996 35.2383 8.47255 34.55 9.45039C33.8617 10.4282 32.8652 11.1567 31.714 11.5237L36.0563 17.7585H31.4857L27.6766 12.1721H24.6043V17.7585H20.6938V0.30156ZM28.5659 8.78075C30.4704 8.78075 31.5624 7.78317 31.5624 6.31168V6.26193C31.5624 4.61604 30.3942 3.76775 28.4901 3.76775H24.6052V8.78075H28.5659ZM45.1463 0.176469H48.7518L56.3696 17.7585H52.2815L50.6564 13.8431H43.1404L41.5152 17.7585H37.5285L45.1463 0.176469ZM49.2599 10.4513L46.8984 4.78999L44.5369 10.4513H49.2599ZM59.1109 0.30156H62.7169L71.0459 11.0503V0.30156H74.9052V17.7589H71.5791L62.9707 6.66096V17.7589H59.1109V0.30156ZM79.1704 0.30156H86.1029C91.6892 0.30156 95.549 4.06725 95.549 8.98026V9.03003C95.549 13.943 91.6892 17.7585 86.1029 17.7585H79.1704V0.30156ZM83.0808 3.76775V14.2923H86.1029C89.3021 14.2923 91.4605 12.1725 91.4605 9.0798V9.03003C91.4605 5.93731 89.3021 3.76775 86.1029 3.76775H83.0808ZM106.643 0.30156H110.554V7.20974H117.765V0.30156H121.676V17.7589H117.765V10.7508H110.554V17.7585H106.643V0.30156ZM125.154 9.0798V9.03003C125.154 4.06725 129.14 0.00206929 134.625 0.00206929C140.11 0.00206929 144.046 4.01702 144.046 8.98026V9.03003C144.046 13.9928 140.059 18.058 134.574 18.058C129.09 18.058 125.154 14.0426 125.154 9.0798ZM139.958 9.0798V9.03003C139.958 6.0373 137.723 3.54312 134.575 3.54312C131.426 3.54312 129.242 5.98708 129.242 8.97981V9.02957C129.242 12.0223 131.477 14.516 134.626 14.516C137.774 14.5165 139.958 12.0725 139.958 9.0798ZM150.901 3.84262H145.492V0.30156H160.22V3.84262H154.811V17.7589H150.9L150.901 3.84262ZM163.215 0.30156H176.622V3.71798H167.1V7.2595H175.48V10.6764H167.1V14.3421H176.749V17.7589H163.215V0.30156ZM180.227 0.30156H184.138V14.2672H193V17.7585H180.227V0.30156ZM44.5727 23.244H57.9803V26.6609H48.458V30.202H56.8377V33.6188H48.458V37.285H58.1077V40.7019H44.5727V23.244ZM61.306 33.2194V23.244H65.2164V33.1198C65.2164 35.9628 66.6641 37.4343 69.0507 37.4343C71.4373 37.4343 72.8854 36.013 72.8854 33.2445V23.244H76.7958V33.0947C76.7958 38.3816 73.7742 40.9754 69.0005 40.9754C64.2258 40.9754 61.306 38.357 61.306 33.2194ZM80.7807 23.244H88.9065C91.1663 23.244 92.9188 23.8677 94.087 25.0146C94.5993 25.5461 94.998 26.1731 95.2596 26.8584C95.5213 27.5437 95.6405 28.2736 95.6104 29.0049V29.0546C95.6675 30.2421 95.3256 31.415 94.6373 32.3928C93.949 33.3707 92.9525 34.0992 91.8013 34.4662L96.1436 40.701H91.5726L87.7639 35.115H84.6911V40.701H80.7807V23.244ZM88.6523 31.7232C90.5568 31.7232 91.6488 30.7256 91.6488 29.2542V29.2039C91.6488 27.558 90.481 26.7102 88.576 26.7102H84.6911V31.7232H88.6523ZM98.3517 32.0223V31.9725C98.3517 27.0093 102.338 22.9445 107.823 22.9445C113.308 22.9445 117.244 26.9595 117.244 31.9227V31.9725C117.244 36.9353 113.257 41 107.772 41C102.287 41.0005 98.3517 36.9855 98.3517 32.0223ZM113.156 32.0223V31.9725C113.156 28.9798 110.921 26.4856 107.773 26.4856C104.624 26.4856 102.44 28.9295 102.44 31.9227V31.9725C102.44 34.9652 104.675 37.4594 107.824 37.4594C110.972 37.4594 113.156 35.0154 113.156 32.0223ZM120.721 23.244H127.983C132.224 23.244 134.789 25.7131 134.789 29.2793V29.329C134.789 33.3691 131.589 35.4642 127.603 35.4642H124.632V40.7014H120.721V23.244ZM127.729 32.0478C129.685 32.0478 130.827 30.9005 130.827 29.4039V29.3541C130.827 27.6334 129.608 26.7102 127.653 26.7102H124.631V32.0474L127.729 32.0478ZM137.683 23.244H151.09V26.6609H141.568V30.202H149.947V33.6188H141.568V37.285H151.217V40.7019H137.683V23.244Z" fill="black"/>
</svg>
