<svg xmlns="http://www.w3.org/2000/svg" version="1.1" xmlns:xlink="http://www.w3.org/1999/xlink" xmlns:svgjs="http://svgjs.com/svgjs" width="512" height="512" x="0" y="0" viewBox="0 0 512 512" style="enable-background:new 0 0 512 512" xml:space="preserve" class=""><g><path clip-rule="evenodd" d="m120.726 61.903c-2.604-4.23-1.288-9.783 2.947-12.383 4.23-2.607 9.774-1.291 12.381 2.943l39.844 64.729c2.606 4.229 1.287 9.77-2.946 12.377-1.471.9-3.1 1.344-4.709 1.344-3.022 0-5.973-1.523-7.673-4.291zm215.377 55.289 39.842-64.729c2.606-4.234 8.152-5.541 12.382-2.943 4.232 2.6 5.551 8.152 2.947 12.383l-39.844 64.719c-1.7 2.758-4.651 4.291-7.673 4.291-1.61 0-3.238-.443-4.709-1.344-4.234-2.607-5.551-8.148-2.945-12.377zm-89.104-9.492v-80.137c0-4.975 4.03-9.002 9.001-9.002 4.969 0 8.999 4.027 8.999 9.002v80.137c0 4.969-4.03 9.002-8.999 9.002-4.972 0-9.001-4.033-9.001-9.002zm-154.332 63.992 59.938 59.939h-119.878zm266.727 59.94 59.938-59.939 59.94 59.939zm-15.241 18.002h135.12l-202.68 202.676zm-176.301 0 66.803 199.838-201.777-199.838zm6.481-21.733 59.938-59.938h-119.876zm103.395-59.937 59.938 59.938 59.937-59.938zm-81.666 63.668 59.938-59.94 59.938 59.939h-119.876zm129.119 18.002h-138.348l69.271 207.217zm182.184-15.371-81.668-81.66c-1.688-1.689-3.977-2.641-6.364-2.641h-326.666c-2.388 0-4.677.951-6.364 2.641l-81.667 81.66c-1.694 1.701-2.643 3.988-2.638 6.389.006 2.391.967 4.691 2.667 6.369l246.183 243.82c1.753 1.74 4.043 2.598 6.332 2.598 2.304 0 4.608-.877 6.364-2.625l243.819-243.82c1.688-1.693 2.636-3.984 2.636-6.361.001-2.392-.946-4.683-2.634-6.37z" fill-rule="evenodd" fill="#000000" data-original="#000000" class=""></path></g></svg>