<svg xmlns="http://www.w3.org/2000/svg" version="1.1" xmlns:xlink="http://www.w3.org/1999/xlink" xmlns:svgjs="http://svgjs.com/svgjs" width="512" height="512" x="0" y="0" viewBox="0 0 100 100" style="enable-background:new 0 0 512 512" xml:space="preserve" class=""><g><g><path d="m61.7 36.1c.1-.1.3-.2.4-.3l24-24c.6-.6.5-1.6-.1-2.1s-1.5-.5-2 0l-24 24c-.1.1-.2.3-.3.4-6.2-5-15.6-4.4-21.7 1.7l-30.9 22.9c-.7.5-.8 1.4-.3 2.1 0 .1.1.1.1.2l28.7 29.3c.3.3.7.4 1.1.5h.1c.4 0 .9-.3 1.1-.6l23-32.4c3-3.1 4.6-7.2 4.6-11.5 0-3.8-1.4-7.4-3.8-10.2zm-25.2 50.8-7.7-7.9c.1-.1.2-.1.3-.2l14-14c.6-.6.5-1.6-.1-2.1s-1.5-.5-2 0l-14 14c-.1.1-.1.2-.2.3l-6.9-7c.1 0 .1-.1.2-.1l14-14c.6-.6.5-1.6-.1-2.1s-1.5-.5-2 0l-14 14c0 .1-.1.1-.1.2l-7.5-7.7 28.6-21.5 18.4 18.5h.1zm22.9-31.9-18-18c5.2-4.3 12.7-4.3 17.3.3 2.5 2.4 3.8 5.7 3.9 9.1 0 3-1.1 6.1-3.2 8.6z" fill="#000000" data-original="#000000" class=""></path><path d="m85.4 37.5c1.7 2.5 2 5.7 1 8.5-2 5.5-8.5 8.5-14.5 6.6-.8-.2-1.6.2-1.9 1-.2.8.2 1.6 1 1.9 1.5.4 3 .7 4.5.7 6 0 11.7-3.5 13.7-9.1 1.3-3.7.9-7.9-1.3-11.2-.5-.7-1.4-.9-2.1-.4-.6.4-.8 1.3-.4 2z" fill="#000000" data-original="#000000" class=""></path><path d="m92.5 61.3c-.8-.3-1.6.1-1.9.9-1.1 2.9-3.4 5.1-6.3 6.2-5.8 2.2-12.5-.1-14.9-5.3-.3-.8-1.2-1.1-2-.8s-1.1 1.2-.8 2c0 0 0 .1.1.1 2.3 4.9 7.6 7.8 13.2 7.8 1.9 0 3.8-.3 5.5-1 3.7-1.4 6.6-4.3 8-8 .3-.7-.1-1.6-.9-1.9z" fill="#000000" data-original="#000000" class=""></path><path d="m82.7 81.7s-.1.1-.1.1c-2.6 2-6 2.8-9.2 2.3-3-.5-5.8-2.1-7.6-4.6-1.5-2.2-2.1-4.8-1.7-7.4.2-.8-.4-1.6-1.2-1.8s-1.6.4-1.8 1.2c-.6 3.4.1 6.9 2.2 9.7 2.3 3.1 5.7 5.3 9.5 5.8.8.1 1.6.2 2.4.2 3.3 0 6.4-1 9.1-3 .7-.5.9-1.4.4-2.1-.3-.6-1.3-.8-2-.4z" fill="#000000" data-original="#000000" class=""></path></g></g></svg>