<svg xmlns="http://www.w3.org/2000/svg" version="1.1" xmlns:xlink="http://www.w3.org/1999/xlink" xmlns:svgjs="http://svgjs.com/svgjs" width="512" height="512" x="0" y="0" viewBox="0 0 409.60001 409" style="enable-background:new 0 0 512 512" xml:space="preserve" class=""><g><path d="m274.453125 51.320312h-7.679687c-2.828126 0-5.121094 2.289063-5.121094 5.121094 0 2.828125 2.292968 5.117188 5.121094 5.117188h7.679687c2.828125 0 5.121094-2.289063 5.121094-5.117188 0-2.832031-2.292969-5.121094-5.121094-5.121094zm0 0" fill="#000000" data-original="#000000" class=""></path><path d="m145.199219 130.800781c0 2.828125 2.289062 5.121094 5.117187 5.121094h15.34375c2.828125 0 5.121094-2.292969 5.121094-5.121094 0-2.832031-2.292969-5.121093-5.121094-5.121093h-15.34375c-2.828125 0-5.117187 2.289062-5.117187 5.121093zm0 0" fill="#000000" data-original="#000000" class=""></path><path d="m210.515625 51.320312h-15.34375c-2.828125 0-5.121094 2.289063-5.121094 5.121094 0 2.828125 2.292969 5.117188 5.121094 5.117188h15.34375c2.828125 0 5.121094-2.289063 5.121094-5.117188 0-2.832031-2.292969-5.121094-5.121094-5.121094zm0 0" fill="#000000" data-original="#000000" class=""></path><path d="m164.996094 216.496094c2.28125-1.671875 2.777344-4.871094 1.109375-7.15625-1.667969-2.28125-4.878907-2.785156-7.15625-1.105469-4.695313 3.429687-8.691407 7.910156-11.5625 12.949219-1.402344 2.457031-.546875 5.585937 1.910156 6.988281.800781.453125 1.671875.667969 2.53125.667969 1.78125 0 3.507813-.929688 4.453125-2.585938 2.164062-3.792968 5.175781-7.167968 8.714844-9.757812zm0 0" fill="#000000" data-original="#000000" class=""></path><path d="m180.996094 130.800781c0 2.828125 2.292968 5.121094 5.121094 5.121094h15.34375c2.828124 0 5.117187-2.292969 5.117187-5.121094 0-2.832031-2.289063-5.121093-5.117187-5.121093h-15.34375c-2.828126 0-5.121094 2.289062-5.121094 5.121093zm0 0" fill="#000000" data-original="#000000" class=""></path><path d="m175.828125 205.800781c.179687 2.699219 2.429687 4.773438 5.101563 4.773438.117187 0 .230468-.003907.347656-.007813.707031-.050781 1.421875-.078125 2.136718-.078125h12.859376c2.828124 0 5.121093-2.289062 5.121093-5.117187 0-2.832032-2.292969-5.121094-5.121093-5.121094h-12.859376c-.945312 0-1.890624.035156-2.820312.09375-2.824219.191406-4.957031 2.632812-4.765625 5.457031zm0 0" fill="#000000" data-original="#000000" class=""></path><path d="m174.714844 51.320312h-15.34375c-2.828125 0-5.121094 2.289063-5.121094 5.121094 0 2.828125 2.292969 5.117188 5.121094 5.117188h15.34375c2.828125 0 5.121094-2.289063 5.121094-5.117188 0-2.832031-2.292969-5.121094-5.121094-5.121094zm0 0" fill="#000000" data-original="#000000" class=""></path><path d="m211.613281 205.371094c0 2.828125 2.292969 5.117187 5.121094 5.117187h15.339844c2.828125 0 5.121093-2.289062 5.121093-5.117187 0-2.832032-2.292968-5.121094-5.121093-5.121094h-15.339844c-2.828125 0-5.121094 2.289062-5.121094 5.121094zm0 0" fill="#000000" data-original="#000000" class=""></path><path d="m216.796875 130.800781c0 2.828125 2.292969 5.121094 5.121094 5.121094h15.34375c2.824219 0 5.117187-2.292969 5.117187-5.121094 0-2.832031-2.292968-5.121093-5.117187-5.121093h-15.34375c-2.828125 0-5.121094 2.289062-5.121094 5.121093zm0 0" fill="#000000" data-original="#000000" class=""></path><path d="m179.105469 282.925781c2.558593 0 4.765625-1.914062 5.078125-4.515625.332031-2.808594-1.671875-5.355468-4.484375-5.691406-4.402344-.519531-8.5625-1.949219-12.363281-4.234375-2.417969-1.464844-5.566407-.675781-7.027344 1.746094-1.457032 2.417969-.679688 5.566406 1.742187 7.023437 5.054688 3.046875 10.585938 4.941406 16.445313 5.636719.203125.023437.40625.035156.609375.035156zm0 0" fill="#000000" data-original="#000000" class=""></path><path d="m293.90625 348.640625h-15.339844c-2.828125 0-5.121094 2.289063-5.121094 5.121094 0 2.828125 2.292969 5.117187 5.121094 5.117187h15.339844c2.828125 0 5.121094-2.289062 5.121094-5.117187 0-2.832031-2.292969-5.121094-5.121094-5.121094zm0 0" fill="#000000" data-original="#000000" class=""></path><path d="m258.109375 348.640625h-15.34375c-2.828125 0-5.121094 2.289063-5.121094 5.121094 0 2.828125 2.292969 5.117187 5.121094 5.117187h15.34375c2.824219 0 5.117187-2.289062 5.117187-5.117187 0-2.832031-2.292968-5.121094-5.117187-5.121094zm0 0" fill="#000000" data-original="#000000" class=""></path><path d="m220.007812 278.054688c0-2.828126-2.292968-5.121094-5.121093-5.121094h-15.34375c-2.828125 0-5.121094 2.292968-5.121094 5.121094 0 2.832031 2.292969 5.121093 5.121094 5.121093h15.34375c2.828125 0 5.121093-2.289062 5.121093-5.121093zm0 0" fill="#000000" data-original="#000000" class=""></path><path d="m186.503906 348.640625h-15.339844c-2.828124 0-5.121093 2.289063-5.121093 5.121094 0 2.828125 2.292969 5.117187 5.121093 5.117187h15.339844c2.828125 0 5.121094-2.289062 5.121094-5.117187 0-2.832031-2.292969-5.121094-5.121094-5.121094zm0 0" fill="#000000" data-original="#000000" class=""></path><path d="m255.808594 278.054688c0-2.828126-2.292969-5.121094-5.121094-5.121094h-15.34375c-2.828125 0-5.121094 2.292968-5.121094 5.121094 0 2.832031 2.292969 5.121093 5.121094 5.121093h15.34375c2.828125 0 5.121094-2.289062 5.121094-5.121093zm0 0" fill="#000000" data-original="#000000" class=""></path><path d="m222.308594 348.640625h-15.347656c-2.824219 0-5.117188 2.289063-5.117188 5.121094 0 2.828125 2.292969 5.117187 5.117188 5.117187h15.347656c2.828125 0 5.117187-2.289062 5.117187-5.117187 0-2.832031-2.289062-5.121094-5.117187-5.121094zm0 0" fill="#000000" data-original="#000000" class=""></path><path d="m291.609375 278.054688c0-2.828126-2.292969-5.121094-5.121094-5.121094h-15.34375c-2.828125 0-5.121093 2.292968-5.121093 5.121094 0 2.832031 2.292968 5.121093 5.121093 5.121093h15.34375c2.828125 0 5.121094-2.289062 5.121094-5.121093zm0 0" fill="#000000" data-original="#000000" class=""></path><path d="m36.566406 56.40625c-.765625-2.730469-3.59375-4.320312-6.3125-3.550781-5.660156 1.589843-10.832031 4.316406-15.367187 8.097656-2.171875 1.8125-2.460938 5.042969-.648438 7.210937 1.011719 1.214844 2.464844 1.839844 3.933594 1.839844 1.15625 0 2.316406-.390625 3.277344-1.1875 3.417969-2.855468 7.3125-4.90625 11.570312-6.101562 2.722657-.765625 4.308594-3.589844 3.546875-6.308594zm0 0" fill="#000000" data-original="#000000" class=""></path><path d="m247.46875 205.070312c.722656 2.125 2.714844 3.464844 4.84375 3.464844.546875 0 1.105469-.085937 1.65625-.273437 5.558594-1.902344 10.570312-4.90625 14.890625-8.945313 2.066406-1.929687 2.175781-5.171875.242187-7.238281-1.925781-2.066406-5.175781-2.179687-7.234374-.242187-3.253907 3.039062-7.027344 5.304687-11.210938 6.734374-2.671875.914063-4.105469 3.824219-3.1875 6.5zm0 0" fill="#000000" data-original="#000000" class=""></path><path d="m11.742188 83.179688c.871093-2.691407-.605469-5.574219-3.296876-6.445313-2.707031-.878906-5.582031.609375-6.449218 3.296875-1.324219 4.109375-2.00000025 8.402344-1.996094 12.75v1.671875c0 .882813.0273438 1.757813.0820312 2.625.1679688 2.71875 2.4218748 4.808594 5.1054688 4.808594.109375 0 .214844-.007813.324219-.011719 2.820312-.175781 4.964843-2.605469 4.789062-5.425781-.039062-.660157-.0625-1.324219-.0625-1.996094v-1.679687c0-3.273438.503907-6.503907 1.503907-9.59375zm0 0" fill="#000000" data-original="#000000" class=""></path><path d="m20.757812 130.386719c.804688.464843 1.683594.683593 2.550782.683593 1.769531 0 3.492187-.921874 4.441406-2.558593 1.414062-2.453125.574219-5.585938-1.878906-6.996094-3.785156-2.1875-7.144532-5.214844-9.714844-8.765625-1.660156-2.285156-4.855469-2.804688-7.148438-1.140625-2.289062 1.65625-2.804687 4.859375-1.144531 7.152344 3.410157 4.703125 7.871094 8.726562 12.894531 11.625zm0 0" fill="#000000" data-original="#000000" class=""></path><path d="m246.316406 51.320312h-15.34375c-2.828125 0-5.121094 2.289063-5.121094 5.121094 0 2.828125 2.292969 5.117188 5.121094 5.117188h15.34375c2.824219 0 5.117188-2.289063 5.117188-5.117188 0-2.832031-2.292969-5.121094-5.117188-5.121094zm0 0" fill="#000000" data-original="#000000" class=""></path><path d="m37.796875 130.800781c0 2.828125 2.289063 5.121094 5.117187 5.121094h15.347657c2.824219 0 5.117187-2.292969 5.117187-5.121094 0-2.832031-2.292968-5.121093-5.117187-5.121093h-15.347657c-2.828124 0-5.117187 2.289062-5.117187 5.121093zm0 0" fill="#000000" data-original="#000000" class=""></path><path d="m365.507812 348.640625h-15.34375c-2.828124 0-5.117187 2.289063-5.117187 5.121094 0 2.828125 2.289063 5.117187 5.117187 5.117187h15.34375c2.828126 0 5.121094-2.289062 5.121094-5.117187 0-2.832031-2.292968-5.121094-5.121094-5.121094zm0 0" fill="#000000" data-original="#000000" class=""></path><path d="m73.597656 130.800781c0 2.828125 2.292969 5.121094 5.121094 5.121094h15.339844c2.828125 0 5.121094-2.292969 5.121094-5.121094 0-2.832031-2.292969-5.121093-5.121094-5.121093h-15.339844c-2.828125 0-5.121094 2.289062-5.121094 5.121093zm0 0" fill="#000000" data-original="#000000" class=""></path><path d="m252.527344 132.445312c-1.289063 2.515626-.292969 5.601563 2.226562 6.890626 3.890625 1.988281 7.398438 4.84375 10.140625 8.265624 1.011719 1.257813 2.496094 1.914063 3.996094 1.914063 1.125 0 2.257813-.371094 3.203125-1.125 2.203125-1.769531 2.554688-4.996094.785156-7.199219-3.6875-4.601562-8.21875-8.292968-13.460937-10.976562-2.523438-1.285156-5.605469-.285156-6.890625 2.230468zm0 0" fill="#000000" data-original="#000000" class=""></path><path d="m67.3125 61.558594c2.828125 0 5.121094-2.289063 5.121094-5.117188 0-2.832031-2.292969-5.121094-5.121094-5.121094h-15.34375c-2.828125 0-5.117188 2.289063-5.117188 5.121094 0 2.828125 2.289063 5.117188 5.117188 5.117188zm0 0" fill="#000000" data-original="#000000" class=""></path><path d="m363.207031 278.054688c0-2.828126-2.292969-5.121094-5.121093-5.121094h-15.339844c-2.828125 0-5.121094 2.292968-5.121094 5.121094 0 2.832031 2.292969 5.121093 5.121094 5.121093h15.339844c2.828124 0 5.121093-2.289062 5.121093-5.121093zm0 0" fill="#000000" data-original="#000000" class=""></path><path d="m327.40625 278.054688c0-2.828126-2.292969-5.121094-5.117188-5.121094h-15.34375c-2.828124 0-5.121093 2.292968-5.121093 5.121094 0 2.832031 2.292969 5.121093 5.121093 5.121093h15.34375c2.824219 0 5.117188-2.289062 5.117188-5.121093zm0 0" fill="#000000" data-original="#000000" class=""></path><path d="m400.761719 299.714844c-2.726563.753906-4.324219 3.582031-3.566407 6.304687.75 2.710938 1.132813 5.53125 1.132813 8.375v3.027344c0 .707031-.019531 1.40625-.066406 2.101563-.195313 2.820312 1.9375 5.261718 4.757812 5.457031.121094.003906.234375.007812.351563.007812 2.671875 0 4.921875-2.066406 5.105468-4.773437.0625-.925782.09375-1.855469.09375-2.792969v-3.03125c-.003906-3.769531-.511718-7.511719-1.511718-11.109375-.75-2.722656-3.574219-4.316406-6.296875-3.566406zm0 0" fill="#000000" data-original="#000000" class=""></path><path d="m329.707031 348.640625h-15.34375c-2.824219 0-5.117187 2.289063-5.117187 5.121094 0 2.828125 2.292968 5.117187 5.117187 5.117187h15.34375c2.828125 0 5.121094-2.289062 5.121094-5.117187 0-2.832031-2.292969-5.121094-5.121094-5.121094zm0 0" fill="#000000" data-original="#000000" class=""></path><path d="m152.226562 243.113281c-.125-2.828125-2.613281-5.042969-5.339843-4.886719-2.824219.125-5.015625 2.511719-4.890625 5.339844.261718 5.902344 1.738281 11.5625 4.394531 16.8125.902344 1.785156 2.703125 2.8125 4.574219 2.8125.773437 0 1.566406-.175781 2.304687-.550781 2.523438-1.277344 3.535157-4.355469 2.261719-6.878906-1.996094-3.945313-3.109375-8.203125-3.304688-12.648438zm0 0" fill="#000000" data-original="#000000" class=""></path><path d="m270.753906 176.960938c-.710937 2.734374.929688 5.527343 3.667969 6.242187.429687.113281.863281.167969 1.289063.167969 2.277343 0 4.355468-1.527344 4.953124-3.832032.890626-3.417968 1.34375-6.953124 1.34375-10.507812v-1.902344c-.003906-1.582031-.09375-3.148437-.265624-4.6875-.316407-2.816406-2.855469-4.828125-5.660157-4.515625-2.808593.320313-4.832031 2.855469-4.515625 5.664063.132813 1.171875.199219 2.355468.199219 3.550781v1.890625c0 2.683594-.339844 5.347656-1.011719 7.929688zm0 0" fill="#000000" data-original="#000000" class=""></path><path d="m392.335938 335.816406c-2.582032 3.539063-5.957032 6.554688-9.75 8.722656-2.457032 1.40625-3.308594 4.53125-1.90625 6.984376.945312 1.65625 2.671874 2.582031 4.449218 2.582031.859375 0 1.734375-.214844 2.535156-.675781 5.039063-2.878907 9.511719-6.878907 12.945313-11.574219 1.664063-2.285157 1.164063-5.484375-1.117187-7.15625-2.28125-1.667969-5.488282-1.167969-7.15625 1.117187zm0 0" fill="#000000" data-original="#000000" class=""></path><path d="m391.523438 292.589844c1.394531 0 2.785156-.566406 3.792968-1.679688 1.902344-2.09375 1.742188-5.335937-.351562-7.234375-4.378906-3.972656-9.433594-6.902343-15.023438-8.722656-2.695312-.867187-5.578125.605469-6.453125 3.285156-.871093 2.691407.597657 5.582031 3.289063 6.457031 4.207031 1.363282 8.007812 3.574219 11.308594 6.570313.980468.882813 2.210937 1.324219 3.4375 1.324219zm0 0" fill="#000000" data-original="#000000" class=""></path><path d="m129.859375 125.679688h-15.34375c-2.824219 0-5.117187 2.289062-5.117187 5.121093 0 2.828125 2.292968 5.121094 5.117187 5.121094h15.34375c2.828125 0 5.121094-2.292969 5.121094-5.121094 0-2.832031-2.292969-5.121093-5.121094-5.121093zm0 0" fill="#000000" data-original="#000000" class=""></path><path d="m103.113281 61.558594c2.828125 0 5.121094-2.289063 5.121094-5.117188 0-2.832031-2.292969-5.121094-5.121094-5.121094h-15.34375c-2.828125 0-5.121093 2.289063-5.121093 5.121094 0 2.828125 2.292968 5.117188 5.121093 5.117188zm0 0" fill="#000000" data-original="#000000" class=""></path><path d="m138.914062 61.558594c2.828126 0 5.121094-2.289063 5.121094-5.117188 0-2.832031-2.292968-5.121094-5.121094-5.121094h-15.34375c-2.828124 0-5.121093 2.289063-5.121093 5.121094 0 2.828125 2.292969 5.117188 5.121093 5.117188zm0 0" fill="#000000" data-original="#000000" class=""></path><path d="m149.863281 348.640625h-7.679687c-2.824219 0-5.117188 2.289063-5.117188 5.121094 0 2.828125 2.292969 5.117187 5.117188 5.117187h7.679687c2.828125 0 5.121094-2.289062 5.121094-5.117187 0-2.832031-2.292969-5.121094-5.121094-5.121094zm0 0" fill="#000000" data-original="#000000" class=""></path><path d="m59.910156 244.113281c-33.035156 0-59.910156 26.875-59.910156 59.910157 0 44.804687 53.910156 101.882812 56.203125 104.285156.96875 1.015625 2.308594 1.589844 3.707031 1.589844h.050782c1.417968-.011719 2.765624-.613282 3.722656-1.660157 2.292968-2.5 56.132812-61.738281 56.132812-104.214843 0-33.035157-26.875-59.910157-59.90625-59.910157zm-.066406 152.980469c-12.171875-13.75-49.605469-58.808594-49.605469-93.070312 0-27.386719 22.285157-49.667969 49.671875-49.667969 27.386719 0 49.667969 22.28125 49.667969 49.667969 0 32.460937-37.617187 78.941406-49.734375 93.070312zm0 0" fill="#000000" data-original="#000000" class=""></path><path d="m59.910156 276.550781c-15.683594 0-28.445312 12.757813-28.445312 28.445313 0 15.683594 12.761718 28.445312 28.445312 28.445312s28.441406-12.761718 28.441406-28.445312c0-15.6875-12.757812-28.445313-28.441406-28.445313zm0 46.648438c-10.039062 0-18.207031-8.164063-18.207031-18.203125 0-10.042969 8.167969-18.207032 18.207031-18.207032 10.039063 0 18.203125 8.164063 18.203125 18.207032 0 10.039062-8.164062 18.203125-18.203125 18.203125zm0 0" fill="#000000" data-original="#000000" class=""></path><path d="m349.691406.300781c-33.035156 0-59.910156 26.875-59.910156 59.910157 0 44.804687 53.910156 101.878906 56.203125 104.285156.964844 1.015625 2.304687 1.589844 3.707031 1.589844h.046875c1.417969-.015626 2.769531-.617188 3.726563-1.660157 2.292968-2.5 56.136718-61.742187 56.136718-104.214843 0-33.035157-26.875-59.910157-59.910156-59.910157zm-.070312 152.980469c-12.171875-13.742188-49.597656-58.777344-49.597656-93.070312 0-27.390626 22.277343-49.671876 49.667968-49.671876 27.386719 0 49.667969 22.28125 49.667969 49.671876 0 32.460937-37.621094 78.9375-49.738281 93.070312zm0 0" fill="#000000" data-original="#000000" class=""></path><path d="m349.691406 32.734375c-15.683594 0-28.445312 12.761719-28.445312 28.445313 0 15.679687 12.761718 28.441406 28.445312 28.441406s28.445313-12.761719 28.445313-28.441406c0-15.683594-12.761719-28.445313-28.445313-28.445313zm0 46.644531c-10.039062 0-18.203125-8.164062-18.203125-18.199218 0-10.039063 8.164063-18.203126 18.203125-18.203126 10.035156 0 18.203125 8.164063 18.203125 18.203126 0 10.035156-8.167969 18.199218-18.203125 18.199218zm0 0" fill="#000000" data-original="#000000" class=""></path></g></svg>