<svg width="345" height="92" viewBox="0 0 345 92" fill="none" xmlns="http://www.w3.org/2000/svg">
<mask id="mask0_37_47" style="mask-type:alpha" maskUnits="userSpaceOnUse" x="0" y="0" width="345" height="92">
<rect width="345" height="92" transform="matrix(1 0 0 -1 0 92)" fill="#D9D9D9"/>
</mask>
<g mask="url(#mask0_37_47)">
<path d="M26.3991 44.7055H22.9319V82.2021H26.3991V44.7055Z" fill="white"/>
<path d="M29.6672 90.6112C29.5726 90.5156 29.4448 90.4617 29.3114 90.4614C29.2787 90.4615 29.2464 90.4549 29.2163 90.4423C29.1862 90.4296 29.1588 90.411 29.1357 90.3875C29.1126 90.3641 29.0943 90.3363 29.0819 90.3056C29.0694 90.275 29.063 90.2421 29.063 90.209V79.5344C29.063 78.3465 28.5988 77.2073 27.7724 76.3673C26.9461 75.5273 25.8253 75.0554 24.6567 75.0554C23.4881 75.0554 22.3673 75.5273 21.541 76.3673C20.7147 77.2073 20.2504 78.3465 20.2504 79.5344V90.2086C20.2503 90.2757 20.224 90.34 20.1773 90.3874C20.1307 90.4348 20.0674 90.4614 20.0014 90.4614C19.8677 90.4617 19.7395 90.5155 19.6446 90.6112L17 93.3001L32.3308 93.3197L29.6672 90.6112Z" fill="white"/>
<path d="M25.9896 18.3951C25.9896 18.671 25.9091 18.9407 25.7583 19.1701C25.6074 19.3995 25.3931 19.5782 25.1423 19.6838C24.8915 19.7893 24.6156 19.8169 24.3494 19.763C24.0831 19.7092 23.8386 19.5763 23.6467 19.3811C23.4548 19.186 23.3242 18.9374 23.2713 18.6667C23.2184 18.3961 23.2457 18.1156 23.3496 17.8607C23.4536 17.6059 23.6295 17.3881 23.8553 17.2348C24.081 17.0816 24.3464 16.9999 24.6178 17C24.798 17 24.9764 17.0361 25.1429 17.1062C25.3094 17.1764 25.4606 17.2791 25.588 17.4087C25.7154 17.5382 25.8164 17.692 25.8853 17.8613C25.9543 18.0305 25.9897 18.2119 25.9896 18.3951Z" fill="white"/>
<path d="M29.5296 24.5877C29.5296 23.2635 29.0121 21.9936 28.091 21.0573C27.1698 20.1209 25.9205 19.5949 24.6178 19.5949C23.3151 19.5949 22.0658 20.1209 21.1446 21.0573C20.2235 21.9936 19.706 23.2635 19.706 24.5877V25.2726H29.5296V24.5877Z" fill="white"/>
<path d="M19.9341 27.748V35.539C19.9353 36.9939 20.5005 38.3897 21.5072 39.424C22.7046 40.6552 23.3745 42.3178 23.3708 44.0492L23.3672 44.9507L25.9759 44.9271V44.1016C25.9772 42.3581 26.651 40.6845 27.8526 39.4403C28.8623 38.3951 29.4287 36.9892 29.4303 35.5243V27.748H19.9341Z" fill="white"/>
<path d="M17.5382 25.2238C17.5383 25.4705 17.6348 25.707 17.8065 25.8814C17.9781 26.0558 18.2108 26.1538 18.4534 26.1539H18.6054C18.6198 26.3397 18.6891 26.5168 18.8043 26.662C18.9195 26.8071 19.0751 26.9134 19.2508 26.967C19.2582 27.2081 19.3576 27.4367 19.5278 27.6047C19.6981 27.7727 19.9259 27.8668 20.1632 27.8672H29.1924C29.4269 27.8669 29.6523 27.7748 29.8218 27.6101C29.9914 27.4455 30.0921 27.2208 30.1031 26.9827C30.2903 26.937 30.4584 26.8322 30.5833 26.6832C30.7082 26.5343 30.7834 26.349 30.7981 26.1539H30.9739C31.2166 26.1539 31.4494 26.0559 31.6211 25.8815C31.7927 25.7071 31.8892 25.4705 31.8893 25.2238H17.5382Z" fill="white"/>
<path d="M26.0383 38.9789H23.3414V42.2342H26.0383V38.9789Z" fill="white"/>
<path d="M26.8141 35.63C26.8139 35.299 26.7395 34.9725 26.5966 34.6751C26.4537 34.3777 26.246 34.1174 25.9893 33.9138C25.7326 33.7103 25.4336 33.5689 25.1151 33.5003C24.7965 33.4318 24.4668 33.438 24.151 33.5183C23.8352 33.5987 23.5415 33.7512 23.2923 33.9642C23.0431 34.1772 22.845 34.4451 22.7129 34.7477C22.5809 35.0502 22.5183 35.3793 22.5301 35.71C22.5419 36.0407 22.6277 36.3644 22.781 36.6564C22.9883 36.986 23.1122 37.3625 23.1417 37.7525V38.8457C23.1417 39.2623 23.3046 39.6618 23.5944 39.9564C23.8842 40.251 24.2772 40.4165 24.6871 40.4165C25.0969 40.4165 25.49 40.251 25.7798 39.9564C26.0696 39.6618 26.2324 39.2623 26.2324 38.8457V37.718C26.2591 37.3324 26.3766 36.959 26.5749 36.6291C26.7327 36.3205 26.8147 35.9778 26.8141 35.63Z" fill="white"/>
<path d="M26.2167 39.2144C26.2167 39.4196 26.1769 39.6229 26.0997 39.8125C26.0224 40.0021 25.9092 40.1744 25.7664 40.3195C25.6236 40.4646 25.4541 40.5797 25.2676 40.6583C25.0811 40.7368 24.8811 40.7772 24.6792 40.7772C24.4773 40.7772 24.2774 40.7368 24.0909 40.6583C23.9043 40.5797 23.7348 40.4646 23.5921 40.3195C23.4493 40.1744 23.336 40.0021 23.2588 39.8125C23.1815 39.6229 23.1417 39.4196 23.1417 39.2144V39.0653H26.2167V39.2144Z" fill="white"/>
<path d="M26.6739 42.6447C26.5948 42.5691 26.5317 42.4779 26.4885 42.3766C26.4454 42.2753 26.423 42.1662 26.4229 42.0558V42.0133C26.4229 41.9744 26.4077 41.9372 26.3807 41.9097C26.3537 41.8822 26.317 41.8668 26.2788 41.8668H23.1006C23.0816 41.8668 23.0629 41.8705 23.0454 41.8779C23.0278 41.8852 23.0119 41.896 22.9985 41.9096C22.9851 41.9232 22.9745 41.9394 22.9672 41.9572C22.9599 41.975 22.9562 41.994 22.9562 42.0133V42.0544C22.9561 42.1652 22.9343 42.2748 22.8921 42.3769C22.8499 42.4789 22.7881 42.5715 22.7104 42.6491L22.4702 42.8899C22.4375 42.9224 22.4115 42.9613 22.3938 43.0042C22.376 43.0471 22.3669 43.0932 22.367 43.1397V45.4895C22.3669 45.8009 22.4886 46.0996 22.7053 46.3199C22.9219 46.5402 23.2157 46.6639 23.5221 46.664H25.8824C26.1888 46.6639 26.4827 46.5401 26.6994 46.3199C26.9161 46.0996 27.0378 45.8009 27.0379 45.4895V43.1397C27.0379 43.0933 27.0285 43.0473 27.0103 43.0048C26.9921 42.9622 26.9654 42.9239 26.9321 42.8922L26.6739 42.6447Z" fill="white"/>
<path d="M26.3991 44.7055H22.9319V82.2021H26.3991V44.7055Z" stroke="#646464" stroke-linecap="round" stroke-linejoin="round"/>
<path d="M29.6672 90.6112C29.5726 90.5156 29.4448 90.4617 29.3114 90.4614C29.2787 90.4615 29.2464 90.4549 29.2163 90.4423C29.1862 90.4296 29.1588 90.411 29.1357 90.3875C29.1126 90.3641 29.0943 90.3363 29.0819 90.3056C29.0694 90.275 29.063 90.2421 29.063 90.209V79.5344C29.063 78.3465 28.5988 77.2073 27.7724 76.3673C26.9461 75.5273 25.8253 75.0554 24.6567 75.0554C23.4881 75.0554 22.3673 75.5273 21.541 76.3673C20.7147 77.2073 20.2504 78.3465 20.2504 79.5344V90.2086C20.2503 90.2757 20.224 90.34 20.1773 90.3874C20.1307 90.4348 20.0674 90.4614 20.0014 90.4614C19.8677 90.4617 19.7395 90.5155 19.6446 90.6112L17 93.3001L32.3308 93.3197L29.6672 90.6112Z" stroke="#646464" stroke-linecap="round" stroke-linejoin="round"/>
<path d="M25.9896 18.3951C25.9896 18.671 25.9091 18.9407 25.7583 19.1701C25.6074 19.3995 25.3931 19.5782 25.1423 19.6838C24.8915 19.7893 24.6156 19.8169 24.3494 19.763C24.0831 19.7092 23.8386 19.5763 23.6467 19.3811C23.4548 19.186 23.3242 18.9374 23.2713 18.6667C23.2184 18.3961 23.2457 18.1156 23.3496 17.8607C23.4536 17.6059 23.6295 17.3881 23.8553 17.2348C24.081 17.0816 24.3464 16.9999 24.6178 17C24.798 17 24.9764 17.0361 25.1429 17.1062C25.3094 17.1764 25.4606 17.2791 25.588 17.4087C25.7154 17.5382 25.8164 17.692 25.8853 17.8613C25.9543 18.0305 25.9897 18.2119 25.9896 18.3951Z" stroke="#646464" stroke-linecap="round" stroke-linejoin="round"/>
<path d="M29.5296 24.5877C29.5296 23.2635 29.0121 21.9936 28.091 21.0573C27.1698 20.1209 25.9205 19.5949 24.6178 19.5949C23.3151 19.5949 22.0658 20.1209 21.1446 21.0573C20.2235 21.9936 19.706 23.2635 19.706 24.5877V25.2726H29.5296V24.5877Z" stroke="#646464" stroke-linecap="round" stroke-linejoin="round"/>
<path d="M19.9341 27.748V35.539C19.9353 36.9939 20.5005 38.3897 21.5072 39.424C22.7046 40.6552 23.3745 42.3178 23.3708 44.0492L23.3672 44.9507L25.9759 44.9271V44.1016C25.9772 42.3581 26.651 40.6845 27.8526 39.4403C28.8623 38.3951 29.4287 36.9892 29.4303 35.5243V27.748H19.9341Z" stroke="#646464" stroke-linecap="round" stroke-linejoin="round"/>
<path d="M17.5382 25.2238C17.5383 25.4705 17.6348 25.707 17.8065 25.8814C17.9781 26.0558 18.2108 26.1538 18.4534 26.1539H18.6054C18.6198 26.3397 18.6891 26.5168 18.8043 26.662C18.9195 26.8071 19.0751 26.9134 19.2508 26.967C19.2582 27.2081 19.3576 27.4367 19.5278 27.6047C19.6981 27.7727 19.9259 27.8668 20.1632 27.8672H29.1924C29.4269 27.8669 29.6523 27.7748 29.8218 27.6101C29.9914 27.4455 30.0921 27.2208 30.1031 26.9827C30.2903 26.937 30.4584 26.8322 30.5833 26.6832C30.7082 26.5343 30.7834 26.349 30.7981 26.1539H30.9739C31.2166 26.1539 31.4494 26.0559 31.6211 25.8815C31.7927 25.7071 31.8892 25.4705 31.8893 25.2238H17.5382Z" stroke="#646464" stroke-linecap="round" stroke-linejoin="round"/>
<path d="M26.0383 38.9789H23.3414V42.2342H26.0383V38.9789Z" stroke="#646464" stroke-linecap="round" stroke-linejoin="round"/>
<path d="M26.8141 35.63C26.8139 35.299 26.7395 34.9725 26.5966 34.6751C26.4537 34.3777 26.246 34.1174 25.9893 33.9138C25.7326 33.7103 25.4336 33.5689 25.1151 33.5003C24.7965 33.4318 24.4668 33.438 24.151 33.5183C23.8352 33.5987 23.5415 33.7512 23.2923 33.9642C23.0431 34.1772 22.845 34.4451 22.7129 34.7477C22.5809 35.0502 22.5183 35.3793 22.5301 35.71C22.5419 36.0407 22.6277 36.3644 22.781 36.6564C22.9883 36.986 23.1122 37.3625 23.1417 37.7525V38.8457C23.1417 39.2623 23.3046 39.6618 23.5944 39.9564C23.8842 40.251 24.2772 40.4165 24.6871 40.4165C25.0969 40.4165 25.49 40.251 25.7798 39.9564C26.0696 39.6618 26.2324 39.2623 26.2324 38.8457V37.718C26.2591 37.3324 26.3766 36.959 26.5749 36.6291C26.7327 36.3205 26.8147 35.9778 26.8141 35.63Z" stroke="#646464" stroke-linecap="round" stroke-linejoin="round"/>
<path d="M26.2167 39.2144C26.2167 39.4196 26.1769 39.6229 26.0997 39.8125C26.0224 40.0021 25.9092 40.1744 25.7664 40.3195C25.6236 40.4646 25.4541 40.5797 25.2676 40.6583C25.0811 40.7368 24.8811 40.7772 24.6792 40.7772C24.4773 40.7772 24.2774 40.7368 24.0909 40.6583C23.9043 40.5797 23.7348 40.4646 23.5921 40.3195C23.4493 40.1744 23.336 40.0021 23.2588 39.8125C23.1815 39.6229 23.1417 39.4196 23.1417 39.2144V39.0653H26.2167V39.2144Z" stroke="#646464" stroke-linecap="round" stroke-linejoin="round"/>
<path d="M26.6739 42.6447C26.5948 42.5691 26.5317 42.4779 26.4885 42.3766C26.4454 42.2753 26.423 42.1662 26.4229 42.0558V42.0133C26.4229 41.9744 26.4077 41.9372 26.3807 41.9097C26.3537 41.8822 26.317 41.8668 26.2788 41.8668H23.1006C23.0816 41.8668 23.0629 41.8705 23.0454 41.8779C23.0278 41.8852 23.0119 41.896 22.9985 41.9096C22.9851 41.9232 22.9745 41.9394 22.9672 41.9572C22.9599 41.975 22.9562 41.994 22.9562 42.0133V42.0544C22.9561 42.1652 22.9343 42.2748 22.8921 42.3769C22.8499 42.4789 22.7881 42.5715 22.7104 42.6491L22.4702 42.8899C22.4375 42.9224 22.4115 42.9613 22.3938 43.0042C22.376 43.0471 22.3669 43.0932 22.367 43.1397V45.4895C22.3669 45.8009 22.4886 46.0996 22.7053 46.3199C22.9219 46.5402 23.2157 46.6639 23.5221 46.664H25.8824C26.1888 46.6639 26.4827 46.5401 26.6994 46.3199C26.9161 46.0996 27.0378 45.8009 27.0379 45.4895V43.1397C27.0379 43.0933 27.0285 43.0473 27.0103 43.0048C26.9921 42.9622 26.9654 42.9239 26.9321 42.8922L26.6739 42.6447Z" stroke="#646464" stroke-linecap="round" stroke-linejoin="round"/>
<path d="M323.399 44.7055H319.932V82.2021H323.399V44.7055Z" fill="white"/>
<path d="M326.667 90.6112C326.573 90.5156 326.445 90.4617 326.311 90.4614C326.279 90.4615 326.246 90.4549 326.216 90.4423C326.186 90.4296 326.159 90.411 326.136 90.3875C326.113 90.3641 326.094 90.3363 326.082 90.3056C326.069 90.275 326.063 90.2421 326.063 90.209V79.5344C326.063 78.3465 325.599 77.2073 324.772 76.3673C323.946 75.5273 322.825 75.0554 321.657 75.0554C320.488 75.0554 319.367 75.5273 318.541 76.3673C317.715 77.2073 317.25 78.3465 317.25 79.5344V90.2086C317.25 90.2757 317.224 90.34 317.177 90.3874C317.131 90.4348 317.067 90.4614 317.001 90.4614C316.868 90.4617 316.739 90.5155 316.645 90.6112L314 93.3001L329.331 93.3197L326.667 90.6112Z" fill="white"/>
<path d="M322.99 18.3951C322.99 18.671 322.909 18.9407 322.758 19.1701C322.607 19.3995 322.393 19.5782 322.142 19.6838C321.892 19.7893 321.616 19.8169 321.349 19.763C321.083 19.7092 320.839 19.5763 320.647 19.3811C320.455 19.186 320.324 18.9374 320.271 18.6667C320.218 18.3961 320.246 18.1156 320.35 17.8607C320.454 17.6059 320.63 17.3881 320.855 17.2348C321.081 17.0816 321.346 16.9999 321.618 17C321.798 17 321.976 17.0361 322.143 17.1062C322.309 17.1764 322.461 17.2791 322.588 17.4087C322.715 17.5382 322.816 17.692 322.885 17.8613C322.954 18.0305 322.99 18.2119 322.99 18.3951Z" fill="white"/>
<path d="M326.53 24.5877C326.53 23.2635 326.012 21.9936 325.091 21.0573C324.17 20.1209 322.92 19.5949 321.618 19.5949C320.315 19.5949 319.066 20.1209 318.145 21.0573C317.223 21.9936 316.706 23.2635 316.706 24.5877V25.2726H326.53V24.5877Z" fill="white"/>
<path d="M316.934 27.748V35.539C316.935 36.9939 317.501 38.3897 318.507 39.424C319.705 40.6552 320.375 42.3178 320.371 44.0492L320.367 44.9507L322.976 44.9271V44.1016C322.977 42.3581 323.651 40.6845 324.853 39.4403C325.862 38.3951 326.429 36.9892 326.43 35.5243V27.748H316.934Z" fill="white"/>
<path d="M314.538 25.2238C314.538 25.4705 314.635 25.707 314.806 25.8814C314.978 26.0558 315.211 26.1538 315.453 26.1539H315.605C315.62 26.3397 315.689 26.5168 315.804 26.662C315.919 26.8071 316.075 26.9134 316.251 26.967C316.258 27.2081 316.358 27.4367 316.528 27.6047C316.698 27.7727 316.926 27.8668 317.163 27.8672H326.192C326.427 27.8669 326.652 27.7748 326.822 27.6101C326.991 27.4455 327.092 27.2208 327.103 26.9827C327.29 26.937 327.458 26.8322 327.583 26.6832C327.708 26.5343 327.783 26.349 327.798 26.1539H327.974C328.217 26.1539 328.449 26.0559 328.621 25.8815C328.793 25.7071 328.889 25.4705 328.889 25.2238H314.538Z" fill="white"/>
<path d="M323.038 38.9789H320.341V42.2342H323.038V38.9789Z" fill="white"/>
<path d="M323.814 35.63C323.814 35.299 323.74 34.9725 323.597 34.6751C323.454 34.3777 323.246 34.1174 322.989 33.9138C322.733 33.7103 322.434 33.5689 322.115 33.5003C321.797 33.4318 321.467 33.438 321.151 33.5183C320.835 33.5987 320.542 33.7512 320.292 33.9642C320.043 34.1772 319.845 34.4451 319.713 34.7477C319.581 35.0502 319.518 35.3793 319.53 35.71C319.542 36.0407 319.628 36.3644 319.781 36.6564C319.988 36.986 320.112 37.3625 320.142 37.7525V38.8457C320.142 39.2623 320.305 39.6618 320.594 39.9564C320.884 40.251 321.277 40.4165 321.687 40.4165C322.097 40.4165 322.49 40.251 322.78 39.9564C323.07 39.6618 323.232 39.2623 323.232 38.8457V37.718C323.259 37.3324 323.377 36.959 323.575 36.6291C323.733 36.3205 323.815 35.9778 323.814 35.63Z" fill="white"/>
<path d="M323.217 39.2144C323.217 39.4196 323.177 39.6229 323.1 39.8125C323.022 40.0021 322.909 40.1744 322.766 40.3195C322.624 40.4646 322.454 40.5797 322.268 40.6583C322.081 40.7368 321.881 40.7772 321.679 40.7772C321.477 40.7772 321.277 40.7368 321.091 40.6583C320.904 40.5797 320.735 40.4646 320.592 40.3195C320.449 40.1744 320.336 40.0021 320.259 39.8125C320.182 39.6229 320.142 39.4196 320.142 39.2144V39.0653H323.217V39.2144Z" fill="white"/>
<path d="M323.674 42.6447C323.595 42.5691 323.532 42.4779 323.489 42.3766C323.445 42.2753 323.423 42.1662 323.423 42.0558V42.0133C323.423 41.9744 323.408 41.9372 323.381 41.9097C323.354 41.8822 323.317 41.8668 323.279 41.8668H320.101C320.082 41.8668 320.063 41.8705 320.045 41.8779C320.028 41.8852 320.012 41.896 319.999 41.9096C319.985 41.9232 319.974 41.9394 319.967 41.9572C319.96 41.975 319.956 41.994 319.956 42.0133V42.0544C319.956 42.1652 319.934 42.2748 319.892 42.3769C319.85 42.4789 319.788 42.5715 319.71 42.6491L319.47 42.8899C319.438 42.9224 319.412 42.9613 319.394 43.0042C319.376 43.0471 319.367 43.0932 319.367 43.1397V45.4895C319.367 45.8009 319.489 46.0996 319.705 46.3199C319.922 46.5402 320.216 46.6639 320.522 46.664H322.882C323.189 46.6639 323.483 46.5401 323.699 46.3199C323.916 46.0996 324.038 45.8009 324.038 45.4895V43.1397C324.038 43.0933 324.028 43.0473 324.01 43.0048C323.992 42.9622 323.965 42.9239 323.932 42.8922L323.674 42.6447Z" fill="white"/>
<path d="M323.399 44.7055H319.932V82.2021H323.399V44.7055Z" stroke="#646464" stroke-linecap="round" stroke-linejoin="round"/>
<path d="M326.667 90.6112C326.573 90.5156 326.445 90.4617 326.311 90.4614C326.279 90.4615 326.246 90.4549 326.216 90.4423C326.186 90.4296 326.159 90.411 326.136 90.3875C326.113 90.3641 326.094 90.3363 326.082 90.3056C326.069 90.275 326.063 90.2421 326.063 90.209V79.5344C326.063 78.3465 325.599 77.2073 324.772 76.3673C323.946 75.5273 322.825 75.0554 321.657 75.0554C320.488 75.0554 319.367 75.5273 318.541 76.3673C317.715 77.2073 317.25 78.3465 317.25 79.5344V90.2086C317.25 90.2757 317.224 90.34 317.177 90.3874C317.131 90.4348 317.067 90.4614 317.001 90.4614C316.868 90.4617 316.739 90.5155 316.645 90.6112L314 93.3001L329.331 93.3197L326.667 90.6112Z" stroke="#646464" stroke-linecap="round" stroke-linejoin="round"/>
<path d="M322.99 18.3951C322.99 18.671 322.909 18.9407 322.758 19.1701C322.607 19.3995 322.393 19.5782 322.142 19.6838C321.892 19.7893 321.616 19.8169 321.349 19.763C321.083 19.7092 320.839 19.5763 320.647 19.3811C320.455 19.186 320.324 18.9374 320.271 18.6667C320.218 18.3961 320.246 18.1156 320.35 17.8607C320.454 17.6059 320.63 17.3881 320.855 17.2348C321.081 17.0816 321.346 16.9999 321.618 17C321.798 17 321.976 17.0361 322.143 17.1062C322.309 17.1764 322.461 17.2791 322.588 17.4087C322.715 17.5382 322.816 17.692 322.885 17.8613C322.954 18.0305 322.99 18.2119 322.99 18.3951Z" stroke="#646464" stroke-linecap="round" stroke-linejoin="round"/>
<path d="M326.53 24.5877C326.53 23.2635 326.012 21.9936 325.091 21.0573C324.17 20.1209 322.92 19.5949 321.618 19.5949C320.315 19.5949 319.066 20.1209 318.145 21.0573C317.223 21.9936 316.706 23.2635 316.706 24.5877V25.2726H326.53V24.5877Z" stroke="#646464" stroke-linecap="round" stroke-linejoin="round"/>
<path d="M316.934 27.748V35.539C316.935 36.9939 317.501 38.3897 318.507 39.424C319.705 40.6552 320.375 42.3178 320.371 44.0492L320.367 44.9507L322.976 44.9271V44.1016C322.977 42.3581 323.651 40.6845 324.853 39.4403C325.862 38.3951 326.429 36.9892 326.43 35.5243V27.748H316.934Z" stroke="#646464" stroke-linecap="round" stroke-linejoin="round"/>
<path d="M314.538 25.2238C314.538 25.4705 314.635 25.707 314.806 25.8814C314.978 26.0558 315.211 26.1538 315.453 26.1539H315.605C315.62 26.3397 315.689 26.5168 315.804 26.662C315.919 26.8071 316.075 26.9134 316.251 26.967C316.258 27.2081 316.358 27.4367 316.528 27.6047C316.698 27.7727 316.926 27.8668 317.163 27.8672H326.192C326.427 27.8669 326.652 27.7748 326.822 27.6101C326.991 27.4455 327.092 27.2208 327.103 26.9827C327.29 26.937 327.458 26.8322 327.583 26.6832C327.708 26.5343 327.783 26.349 327.798 26.1539H327.974C328.217 26.1539 328.449 26.0559 328.621 25.8815C328.793 25.7071 328.889 25.4705 328.889 25.2238H314.538Z" stroke="#646464" stroke-linecap="round" stroke-linejoin="round"/>
<path d="M323.038 38.9789H320.341V42.2342H323.038V38.9789Z" stroke="#646464" stroke-linecap="round" stroke-linejoin="round"/>
<path d="M323.814 35.63C323.814 35.299 323.74 34.9725 323.597 34.6751C323.454 34.3777 323.246 34.1174 322.989 33.9138C322.733 33.7103 322.434 33.5689 322.115 33.5003C321.797 33.4318 321.467 33.438 321.151 33.5183C320.835 33.5987 320.542 33.7512 320.292 33.9642C320.043 34.1772 319.845 34.4451 319.713 34.7477C319.581 35.0502 319.518 35.3793 319.53 35.71C319.542 36.0407 319.628 36.3644 319.781 36.6564C319.988 36.986 320.112 37.3625 320.142 37.7525V38.8457C320.142 39.2623 320.305 39.6618 320.594 39.9564C320.884 40.251 321.277 40.4165 321.687 40.4165C322.097 40.4165 322.49 40.251 322.78 39.9564C323.07 39.6618 323.232 39.2623 323.232 38.8457V37.718C323.259 37.3324 323.377 36.959 323.575 36.6291C323.733 36.3205 323.815 35.9778 323.814 35.63Z" stroke="#646464" stroke-linecap="round" stroke-linejoin="round"/>
<path d="M323.217 39.2144C323.217 39.4196 323.177 39.6229 323.1 39.8125C323.022 40.0021 322.909 40.1744 322.766 40.3195C322.624 40.4646 322.454 40.5797 322.268 40.6583C322.081 40.7368 321.881 40.7772 321.679 40.7772C321.477 40.7772 321.277 40.7368 321.091 40.6583C320.904 40.5797 320.735 40.4646 320.592 40.3195C320.449 40.1744 320.336 40.0021 320.259 39.8125C320.182 39.6229 320.142 39.4196 320.142 39.2144V39.0653H323.217V39.2144Z" stroke="#646464" stroke-linecap="round" stroke-linejoin="round"/>
<path d="M323.674 42.6447C323.595 42.5691 323.532 42.4779 323.489 42.3766C323.445 42.2753 323.423 42.1662 323.423 42.0558V42.0133C323.423 41.9744 323.408 41.9372 323.381 41.9097C323.354 41.8822 323.317 41.8668 323.279 41.8668H320.101C320.082 41.8668 320.063 41.8705 320.045 41.8779C320.028 41.8852 320.012 41.896 319.999 41.9096C319.985 41.9232 319.974 41.9394 319.967 41.9572C319.96 41.975 319.956 41.994 319.956 42.0133V42.0544C319.956 42.1652 319.934 42.2748 319.892 42.3769C319.85 42.4789 319.788 42.5715 319.71 42.6491L319.47 42.8899C319.438 42.9224 319.412 42.9613 319.394 43.0042C319.376 43.0471 319.367 43.0932 319.367 43.1397V45.4895C319.367 45.8009 319.489 46.0996 319.705 46.3199C319.922 46.5402 320.216 46.6639 320.522 46.664H322.882C323.189 46.6639 323.483 46.5401 323.699 46.3199C323.916 46.0996 324.038 45.8009 324.038 45.4895V43.1397C324.038 43.0933 324.028 43.0473 324.01 43.0048C323.992 42.9622 323.965 42.9239 323.932 42.8922L323.674 42.6447Z" stroke="#646464" stroke-linecap="round" stroke-linejoin="round"/>
</g>
</svg>
