<svg xmlns="http://www.w3.org/2000/svg" id="like" width="11.754" height="11.197" viewBox="0 0 11.754 11.197">
  <g id="Group_1422" data-name="Group 1422" transform="translate(0 3.701)">
    <g id="Group_1421" data-name="Group 1421">
      <rect id="Rectangle_1973" data-name="Rectangle 1973" width="2.755" height="7.271" fill="#fff"/>
    </g>
  </g>
  <g id="Group_1424" data-name="Group 1424" transform="translate(3.444)">
    <g id="Group_1423" data-name="Group 1423">
      <path id="Path_2250" data-name="Path 2250" d="M158.06,18.877a1.161,1.161,0,0,0-.234-.7,1.166,1.166,0,0,0-.683-2.112h-2.653l.369-1.275v-.611a2.044,2.044,0,0,0-2.042-2.042.5.5,0,0,0-.5.5v1.354c-.184.295-1.206,1.442-2.323,2.644v6.026l.953.357a5.011,5.011,0,0,0,1.766.32h3.674a1.166,1.166,0,0,0,.933-1.866,1.165,1.165,0,0,0,.25-1.645A1.166,1.166,0,0,0,158.06,18.877Z" transform="translate(-150 -12.137)" fill="#fff"/>
    </g>
  </g>
</svg>