<svg xmlns="http://www.w3.org/2000/svg" width="154.404" height="57.828" viewBox="0 0 154.404 57.828">
  <g id="Grupo_1306" data-name="Grupo 1306" transform="translate(-637.798 -3838.783)">
    <g id="Grupo_1295" data-name="Grupo 1295" transform="translate(699.153 3838.783)">
      <path id="Caminho_2169" data-name="Caminho 2169" d="M559.712,69.289a9.9,9.9,0,0,1,0-19.548V46.485a13.128,13.128,0,0,0,0,26.061Z" transform="translate(-548.185 -46.485)" fill="#fff"/>
      <path id="Caminho_2170" data-name="Caminho 2170" d="M568.095,67.151a13.106,13.106,0,0,0-9.061-20.666v3.256a9.9,9.9,0,0,1,0,19.548v3.255a13.1,13.1,0,0,0,6.878-3.018l4.846,4.681h4.525Z" transform="translate(-544.283 -46.485)" fill="#c82021"/>
    </g>
    <g id="Grupo_1296" data-name="Grupo 1296" transform="translate(637.798 3875.452)" style="isolation: isolate">
      <path id="Caminho_2171" data-name="Caminho 2171" d="M585.819,63.375a7.592,7.592,0,0,1-6.432,3.349,7.842,7.842,0,0,1,0-15.68,7.6,7.6,0,0,1,6.366,3.237L583.112,56.1a4.482,4.482,0,0,0-3.725-1.995,4.794,4.794,0,0,0,0,9.558,4.6,4.6,0,0,0,3.815-2.107Z" transform="translate(-571.714 -50.511)" fill="#fff"/>
      <path id="Caminho_2172" data-name="Caminho 2172" d="M582.219,60a5.378,5.378,0,1,1,5.367,5.388A5.208,5.208,0,0,1,582.219,60Zm7.717,0a2.34,2.34,0,1,0-2.351,2.373A2.3,2.3,0,0,0,589.936,60Z" transform="translate(-567.936 -49.221)" fill="#fff"/>
      <path id="Caminho_2173" data-name="Caminho 2173" d="M594.03,65.212h-3.084V54.854h3.084v1.508a3.456,3.456,0,0,1,2.994-1.729c2.328,0,3.792,1.443,3.792,4.392v6.188h-3.084V59.689c0-1.375-.753-2.063-1.8-2.063-1.086,0-1.906.533-1.906,2.107Z" transform="translate(-564.797 -49.221)" fill="#fff"/>
      <path id="Caminho_2174" data-name="Caminho 2174" d="M602.244,60.953c-3.1-.843-3.127-2.417-3.1-3.372.02-1.53,1.863-2.949,4.035-2.949,2.063,0,4.237.91,4.258,3.437h-2.9c-.023-.776-.688-.908-1.177-.908-.665,0-1.108.31-1.085.776.02.31.287.62.908.775l1.753.466c2.506.688,2.816,2.351,2.816,3.016,0,2.2-2.306,3.239-4.48,3.239-2.106,0-4.3-1.264-4.325-3.57h2.884a1.46,1.46,0,0,0,1.53,1.2c.688-.023,1.265-.333,1.265-.866,0-.443-.265-.687-1.02-.886Z" transform="translate(-561.922 -49.221)" fill="#fff"/>
      <path id="Caminho_2175" data-name="Caminho 2175" d="M612.9,54.795h3.082V65.153H612.9V63.733a3.152,3.152,0,0,1-2.683,1.641c-2.329,0-4.1-1.441-4.1-4.392V54.795H609.2v5.523a1.831,1.831,0,0,0,1.841,2.063c.953,0,1.863-.533,1.863-2.107Z" transform="translate(-559.341 -49.162)" fill="#fff"/>
      <path id="Caminho_2176" data-name="Caminho 2176" d="M624.32,59.733v5.478h-3.084v-5.59a1.793,1.793,0,0,0-1.708-2c-.931,0-1.8.533-1.8,2.107v5.478h-3.084V54.854h3.084v1.508a2.961,2.961,0,0,1,2.706-1.706,3.346,3.346,0,0,1,3.326,1.818,3.548,3.548,0,0,1,3.105-1.841c2.461,0,3.992,1.574,3.992,4.7v5.878H627.8V59.689c0-1.353-.8-2.063-1.708-2.063C625.117,57.626,624.32,58.226,624.32,59.733Z" transform="translate(-556.272 -49.221)" fill="#fff"/>
      <path id="Caminho_2177" data-name="Caminho 2177" d="M637.443,63.326a5.544,5.544,0,0,1-4.723,2.107A5.275,5.275,0,0,1,627.307,60a5.357,5.357,0,1,1,10.713.088c0,.265-.022.688-.043.953h-7.586c.155,1.2,1.463,1.729,2.551,1.729A2.865,2.865,0,0,0,635.2,61.8Zm-2.529-4.214a2.1,2.1,0,0,0-2.173-1.774,2.267,2.267,0,0,0-2.307,1.774Z" transform="translate(-551.719 -49.221)" fill="#fff"/>
      <path id="Caminho_2178" data-name="Caminho 2178" d="M639,65.212h-3.082V54.854H639v2.506c.533-1.929,1.863-2.727,2.929-2.727a3.826,3.826,0,0,1,1.773.377l-.555,2.772a3.5,3.5,0,0,0-1.574-.31c-1.774,0-2.573,1.4-2.573,4.125Z" transform="translate(-548.621 -49.221)" fill="#fff"/>
      <path id="Caminho_2179" data-name="Caminho 2179" d="M653.892,66.455h-3.9l-3.415-5.28h-.733v5.28h-3.259V51.174h6.253a4.8,4.8,0,0,1,5.078,5.012,4.725,4.725,0,0,1-3.814,4.858ZM645.84,54.035v4.3h2.751a2.171,2.171,0,0,0,.088-4.3Z" transform="translate(-546.226 -50.464)" fill="#fff"/>
      <path id="Caminho_2180" data-name="Caminho 2180" d="M659.21,64.035a3.968,3.968,0,0,1-3.016,1.376,5.391,5.391,0,0,1,0-10.779,3.807,3.807,0,0,1,3.016,1.375V54.854h3.061V65.212H659.21ZM656.7,62.483a2.462,2.462,0,1,0,0-4.923,2.465,2.465,0,1,0,0,4.923Z" transform="translate(-543.229 -49.221)" fill="#fff"/>
      <path id="Caminho_2181" data-name="Caminho 2181" d="M666.991,55.845v2.439h-2.174V66.2h-3.061V58.284h-1.884V55.845h1.884V51.876h3.061v3.969Z" transform="translate(-540.007 -50.212)" fill="#fff"/>
      <path id="Caminho_2182" data-name="Caminho 2182" d="M667.481,50.652a1.809,1.809,0,1,1,0,3.615,1.812,1.812,0,1,1,0-3.615Zm1.53,15.991H665.95V56.285h3.061Z" transform="translate(-537.965 -50.652)" fill="#fff"/>
      <path id="Caminho_2183" data-name="Caminho 2183" d="M672.08,65.212H669V54.854h3.084v1.508a3.456,3.456,0,0,1,2.994-1.729c2.328,0,3.792,1.443,3.792,4.392v6.188h-3.084V59.689c0-1.375-.753-2.063-1.8-2.063-1.086,0-1.906.533-1.906,2.107Z" transform="translate(-536.726 -49.221)" fill="#fff"/>
      <path id="Caminho_2184" data-name="Caminho 2184" d="M682.4,67.606c2.349,0,2.994-1.618,2.861-3.682a3.506,3.506,0,0,1-3.105,1.509,5.406,5.406,0,0,1,0-10.8,3.535,3.535,0,0,1,3.105,1.508V54.854h2.993V63.77c0,4.457-2.171,6.609-5.853,6.609a5.521,5.521,0,0,1-5.1-3.217c.776-.377,1.708-.843,2.484-1.22A2.951,2.951,0,0,0,682.4,67.606Zm.288-10.047a2.484,2.484,0,1,0,0,4.968,2.52,2.52,0,0,0,2.5-2.528A2.4,2.4,0,0,0,682.69,57.559Z" transform="translate(-533.851 -49.221)" fill="#fff"/>
    </g>
  </g>
</svg>
