<svg width="92" height="40" viewBox="0 0 92 40" fill="none" xmlns="http://www.w3.org/2000/svg">
<path d="M4.63192 15H0.853516L5.76119 0.454545H10.4416L15.3493 15H11.5708L8.15465 4.11932H8.04102L4.63192 15ZM4.12766 9.27557H12.0254V11.946H4.12766V9.27557ZM24.3283 4.81534C24.281 4.29451 24.0703 3.88968 23.6962 3.60085C23.3269 3.30729 22.7989 3.16051 22.1124 3.16051C21.6578 3.16051 21.2791 3.2197 20.976 3.33807C20.673 3.45644 20.4457 3.61979 20.2942 3.82812C20.1427 4.03172 20.0646 4.2661 20.0598 4.53125C20.0504 4.74905 20.093 4.94081 20.1877 5.10653C20.2871 5.27225 20.4292 5.41903 20.6138 5.54688C20.8032 5.66998 21.0305 5.77888 21.2956 5.87358C21.5608 5.96828 21.8591 6.05114 22.1905 6.12216L23.4405 6.40625C24.1602 6.5625 24.7947 6.77083 25.3439 7.03125C25.8979 7.29167 26.3619 7.6018 26.736 7.96165C27.1148 8.3215 27.4012 8.7358 27.5953 9.20455C27.7895 9.6733 27.8889 10.1989 27.8936 10.7812C27.8889 11.6998 27.6569 12.4882 27.1976 13.1463C26.7383 13.8045 26.0778 14.3087 25.2161 14.6591C24.3591 15.0095 23.3245 15.1847 22.1124 15.1847C20.8955 15.1847 19.8349 15.0024 18.9306 14.6378C18.0262 14.2732 17.3231 13.7192 16.8212 12.9759C16.3193 12.2325 16.0613 11.2926 16.0471 10.1562H19.4135C19.4419 10.625 19.5674 11.0156 19.79 11.3281C20.0125 11.6406 20.3179 11.8774 20.7061 12.0384C21.0991 12.1993 21.5537 12.2798 22.0698 12.2798C22.5433 12.2798 22.9457 12.2159 23.2772 12.0881C23.6133 11.9602 23.8714 11.7827 24.0513 11.5554C24.2312 11.3281 24.3236 11.0677 24.3283 10.7741C24.3236 10.4995 24.2383 10.2652 24.0726 10.071C23.9069 9.87216 23.6512 9.7017 23.3056 9.55966C22.9647 9.41288 22.5291 9.27794 21.9988 9.15483L20.4789 8.79972C19.2194 8.51089 18.2275 8.04451 17.503 7.40057C16.7786 6.75189 16.4187 5.87595 16.4235 4.77273C16.4187 3.87311 16.6602 3.08475 17.1479 2.40767C17.6356 1.73059 18.3103 1.20265 19.1721 0.823864C20.0338 0.445075 21.0163 0.255681 22.1195 0.255681C23.2464 0.255681 24.2241 0.447443 25.0527 0.830965C25.8861 1.20975 26.5324 1.74242 26.9917 2.42898C27.4509 3.11553 27.6853 3.91098 27.6948 4.81534H24.3283ZM29.1934 3.30966V0.454545H41.4874V3.30966H37.0769V15H33.611V3.30966H29.1934ZM56.269 7.72727C56.269 9.32765 55.9612 10.6842 55.3457 11.7969C54.7302 12.9096 53.8968 13.7547 52.8457 14.3324C51.7993 14.91 50.6251 15.1989 49.323 15.1989C48.0162 15.1989 46.8395 14.9077 45.7931 14.3253C44.7467 13.7429 43.9158 12.8977 43.3002 11.7898C42.6895 10.6771 42.3841 9.32292 42.3841 7.72727C42.3841 6.12689 42.6895 4.77036 43.3002 3.65767C43.9158 2.54498 44.7467 1.69981 45.7931 1.12216C46.8395 0.544507 48.0162 0.255681 49.323 0.255681C50.6251 0.255681 51.7993 0.544507 52.8457 1.12216C53.8968 1.69981 54.7302 2.54498 55.3457 3.65767C55.9612 4.77036 56.269 6.12689 56.269 7.72727ZM52.6752 7.72727C52.6752 6.7803 52.5403 5.98011 52.2704 5.3267C52.0053 4.67329 51.6217 4.1785 51.1199 3.84233C50.6227 3.50615 50.0237 3.33807 49.323 3.33807C48.627 3.33807 48.028 3.50615 47.5261 3.84233C47.0242 4.1785 46.6383 4.67329 46.3684 5.3267C46.1033 5.98011 45.9707 6.7803 45.9707 7.72727C45.9707 8.67424 46.1033 9.47443 46.3684 10.1278C46.6383 10.7812 47.0242 11.276 47.5261 11.6122C48.028 11.9484 48.627 12.1165 49.323 12.1165C50.0237 12.1165 50.6227 11.9484 51.1199 11.6122C51.6217 11.276 52.0053 10.7812 52.2704 10.1278C52.5403 9.47443 52.6752 8.67424 52.6752 7.72727ZM58.3216 15V0.454545H64.3301C65.4191 0.454545 66.359 0.651041 67.1497 1.04403C67.9451 1.43229 68.5583 1.991 68.9892 2.72017C69.42 3.4446 69.6355 4.30398 69.6355 5.2983C69.6355 6.30682 69.4153 7.16383 68.975 7.86932C68.5346 8.57008 67.9096 9.10511 67.1 9.47443C66.2903 9.83902 65.3315 10.0213 64.2235 10.0213H60.4238V7.25142H63.5701C64.1004 7.25142 64.5431 7.18276 64.8983 7.04545C65.2581 6.90341 65.5304 6.69034 65.715 6.40625C65.8997 6.11742 65.992 5.74811 65.992 5.2983C65.992 4.84848 65.8997 4.4768 65.715 4.18324C65.5304 3.88494 65.2581 3.66241 64.8983 3.51562C64.5384 3.36411 64.0957 3.28835 63.5701 3.28835H61.8372V15H58.3216ZM66.5105 8.35227L70.1326 15H66.2974L62.7463 8.35227H66.5105ZM75.0794 0.454545V15H71.5637V0.454545H75.0794ZM80.4327 15H76.6543L81.562 0.454545H86.2424L91.15 15H87.3716L83.9554 4.11932H83.8418L80.4327 15ZM79.9284 9.27557H87.8262V11.946H79.9284V9.27557ZM13.429 39V24.4545H16.9446V30.2926H22.6761V24.4545H26.1847V39H22.6761V33.1548H16.9446V39H13.429ZM42.1186 31.7273C42.1186 33.3277 41.8108 34.6842 41.1953 35.7969C40.5798 36.9096 39.7464 37.7547 38.6953 38.3324C37.6489 38.91 36.4747 39.1989 35.1726 39.1989C33.8658 39.1989 32.6892 38.9077 31.6428 38.3253C30.5964 37.7429 29.7654 36.8977 29.1499 35.7898C28.5391 34.6771 28.2337 33.3229 28.2337 31.7273C28.2337 30.1269 28.5391 28.7704 29.1499 27.6577C29.7654 26.545 30.5964 25.6998 31.6428 25.1222C32.6892 24.5445 33.8658 24.2557 35.1726 24.2557C36.4747 24.2557 37.6489 24.5445 38.6953 25.1222C39.7464 25.6998 40.5798 26.545 41.1953 27.6577C41.8108 28.7704 42.1186 30.1269 42.1186 31.7273ZM38.5249 31.7273C38.5249 30.7803 38.3899 29.9801 38.12 29.3267C37.8549 28.6733 37.4714 28.1785 36.9695 27.8423C36.4723 27.5062 35.8733 27.3381 35.1726 27.3381C34.4766 27.3381 33.8776 27.5062 33.3757 27.8423C32.8738 28.1785 32.4879 28.6733 32.218 29.3267C31.9529 29.9801 31.8203 30.7803 31.8203 31.7273C31.8203 32.6742 31.9529 33.4744 32.218 34.1278C32.4879 34.7812 32.8738 35.276 33.3757 35.6122C33.8776 35.9484 34.4766 36.1165 35.1726 36.1165C35.8733 36.1165 36.4723 35.9484 36.9695 35.6122C37.4714 35.276 37.8549 34.7812 38.12 34.1278C38.3899 33.4744 38.5249 32.6742 38.5249 31.7273ZM43.0312 27.3097V24.4545H55.3253V27.3097H50.9148V39H47.4489V27.3097H43.0312ZM57.0423 39V24.4545H67.1843V27.3097H60.5579V30.2926H66.6658V33.1548H60.5579V36.1449H67.1843V39H57.0423ZM69.386 39V24.4545H72.9016V36.1449H78.9528V39H69.386Z" fill="black"/>
</svg>
